<svg xmlns="http://www.w3.org/2000/svg" viewBox="0 0 209.48 235.3"><defs><style>.cls-1{fill:none;stroke:#f0830d;stroke-miterlimit:10;stroke-width:9.71px;}.cls-2{font-size:23.05px;fill:#f0830d;font-family:BerlinSansFBDemi-Bold, Berlin Sans FB Demi;font-weight:700;}</style></defs><title>Asset 5</title><g id="Layer_2" data-name="Layer 2"><g id="Layer_1-2" data-name="Layer 1"><path class="cls-1" d="M115.62,33h-65A45.74,45.74,0,0,0,4.85,78.77h0a45.74,45.74,0,0,0,45.74,45.74H94.83L95,198.84h12.66a97,97,0,0,0,97-97h0a97,97,0,0,0-97-97H60.24V78.6H95.42a45.74,45.74,0,0,1,45.74,45.74h0a45.74,45.74,0,0,1-45.74,45.74H60.24"/><text class="cls-2" transform="translate(88.57 230.58) scale(0.97 1)">SiteDesign</text></g></g></svg>