<svg xmlns="http://www.w3.org/2000/svg" width="850" height="604.907" viewBox="0 0 850 604.907"><g id="Group_938" data-name="Group 938" transform="translate(-780.121 -475.079)"><path id="Path_7772" data-name="Path 7772" d="M1863.147,1053.119c-35.51,35.736-97.526,60.249-175.352,66.313q-7.868.613-15.913,1.009c-17.471.859-35.519.944-53.947.251q-7.935-.3-15.964-.783a742.386,742.386,0,0,1-126.224-18.865l-.8-.192q-4.255-1.018-8.507-2.09-5.983-1.509-11.949-3.118-4.517-1.221-9.017-2.5-19.336-5.485-38.31-12.051-10.792-3.735-21.411-7.823-5.975-2.3-11.885-4.71c-70.739-28.846-134.295-69.553-178.847-122.106q-7.107-8.379-13.555-17.169-3.693-5.028-7.15-10.192-2.3-3.427-4.484-6.913a258.411,258.411,0,0,1-36.609-94.86q-.6-3.528-1.107-7.1c-.051-.349-.1-.7-.149-1.054,0,0-.4-2.544-.87-7.082a296.9,296.9,0,0,1,.335-61.567c2.29-20.476,7.189-43.2,16.828-64.705q1.521-3.4,3.211-6.755.106-.22.22-.439.659-1.306,1.349-2.606,3.207-6.055,6.992-11.9,1.441-2.214,2.969-4.386a137.562,137.562,0,0,1,13.676-16.572q2.193-2.269,4.524-4.459a132.87,132.87,0,0,1,22.831-17.22c20.428-12.223,46.319-20.479,79.086-22.485q1.982-.123,3.938-.228c180.315-9.9,183.977,68.863,375.977-39.9C1856.42,439.319,1945.9,642.9,1914.891,735.819,1883.714,829.271,1990.853,924.6,1863.147,1053.119Z" transform="translate(-297.432 -42.24)" fill="#feeed3"></path><g id="Group_883" data-name="Group 883" transform="translate(1354.228 653.391)"><path id="Path_7773" data-name="Path 7773" d="M3017.7,1150.4s-14.145,3.488-19.184,16.859-5.038,23.641-4.069,27.323-13.629,16.6-11.5,19.313,6.2,3.187,7.837,5.254-2.412,6.8-.948,7.837,4.392,3.789,4.392,3.789c-.086.6-1.895,2.756-.6,4.22s2.412,1.981,2.412,3.789-.431,7.062,7.062,7.837,15.33-2.5,15.33-2.5-2.928,32.3-5.426,38.066,35.827-16.363,35.827-16.363-3.014-29.368.431-31.865,19.593-13.026,11.455-35.5S3022.26,1148.675,3017.7,1150.4Z" transform="translate(-2982.738 -1150.32)" fill="#fff"></path><path id="Path_7774" data-name="Path 7774" d="M3017.7,1150.4s-14.145,3.488-19.184,16.859-5.038,23.641-4.069,27.323-13.629,16.6-11.5,19.313,6.2,3.187,7.837,5.254-2.412,6.8-.948,7.837,4.392,3.789,4.392,3.789c-.086.6-1.895,2.756-.6,4.22s2.412,1.981,2.412,3.789-.431,7.062,7.062,7.837,15.33-2.5,15.33-2.5-2.928,32.3-5.426,38.066,35.827-16.363,35.827-16.363-3.014-29.368.431-31.865,19.593-13.026,11.455-35.5S3022.26,1148.675,3017.7,1150.4Z" transform="translate(-2982.738 -1150.32)" fill="none" stroke="#000" stroke-linecap="round" stroke-miterlimit="10" stroke-width="2"></path></g><path id="Path_7775" data-name="Path 7775" d="M3097.681,1152.256s2.757,5.769,3.317,20.525,19.808,59.325,17.483,73.406-10.434,26.776-17.483,30.358,30.4-10.722,30.4-10.722-4.393-23.066.646-38.6-25.837-76.984-28.808-76.906A11.311,11.311,0,0,0,3097.681,1152.256Z" transform="translate(-1711.074 -496.928)" fill="#fcaa23"></path><path id="Path_7776" data-name="Path 7776" d="M3096.708,1131.562s-11.064-.182-13.692,8.2c0,0,6.242-2.352,8.568,0s-1.551,27.069,10.851,41.107,8.526,42.8,23.339,44.784,22.22-16.966,25.708-36.085c0,0,9.962-53.483-40.524-58Z" transform="translate(-1700.54 -483.455)" fill="#0b065a"></path><path id="Path_7777" data-name="Path 7777" d="M3275,1308.812s17.246,8.138,27.9,39.724,2.907,82.355-19.378,95.725-24.8-57.939-14.339-83.13,11.627-44.762,3.1-47.863S3275,1308.812,3275,1308.812Z" transform="translate(-1830.003 -610.774)" fill="#0b065a"></path><g id="Group_884" data-name="Group 884" transform="translate(1304.54 1030.105)"><path id="Path_7778" data-name="Path 7778" d="M2822.31,2535.983l9.057-33.657,3.952-14.69-17.826,2.327-2.087,8.47-9.059,36.767" transform="translate(-2806.346 -2487.636)" fill="#0b065a"></path><path id="Path_7779" data-name="Path 7779" d="M2822.31,2535.983l9.057-33.657,3.952-14.69-17.826,2.327-2.087,8.47-9.059,36.767" transform="translate(-2806.346 -2487.636)" fill="none" stroke="#000" stroke-linecap="round" stroke-miterlimit="10" stroke-width="2"></path></g><g id="Group_885" data-name="Group 885" transform="translate(1361.507 1030.105)"><path id="Path_7780" data-name="Path 7780" d="M3037.433,2534.724q-7.868.613-15.913,1.009l-8.231-30.589-4.713-17.507,17.828,2.327,3.363,13.648Z" transform="translate(-3008.576 -2487.636)" fill="#0b065a"></path><path id="Path_7781" data-name="Path 7781" d="M3037.433,2534.724q-7.868.613-15.913,1.009l-8.231-30.589-4.713-17.507,17.828,2.327,3.363,13.648Z" transform="translate(-3008.576 -2487.636)" fill="none" stroke="#000" stroke-linecap="round" stroke-miterlimit="10" stroke-width="2"></path></g><g id="Group_886" data-name="Group 886" transform="translate(1180.665 919.518)"><path id="Path_7782" data-name="Path 7782" d="M2371.657,2158.623l31.586,7.169s17.846.194,19.193-14.533-4.553-48.057-9.16-49.607-42.006-10.658-45.688-4.457S2371.657,2158.623,2371.657,2158.623Z" transform="translate(-2366.596 -2095.058)" fill="#fff"></path><path id="Path_7783" data-name="Path 7783" d="M2371.657,2158.623l31.586,7.169s17.846.194,19.193-14.533-4.553-48.057-9.16-49.607-42.006-10.658-45.688-4.457S2371.657,2158.623,2371.657,2158.623Z" transform="translate(-2366.596 -2095.058)" fill="none" stroke="#000" stroke-linecap="round" stroke-miterlimit="10" stroke-width="2"></path></g><path id="Path_7784" data-name="Path 7784" d="M2429.318,2148.277s1.464,27.817-3.1,38.066-24.373,6.373-24.373,6.373l-.657,4.683s31.23,7.589,33.814,6.943,0-55.291,0-55.291Z" transform="translate(-1210.779 -1213.767)" fill="#fcaa23"></path><g id="Group_887" data-name="Group 887" transform="translate(1109.731 936.393)"><path id="Path_7785" data-name="Path 7785" d="M2162.113,2271.973q-4.517-1.221-9.017-2.5-19.335-5.484-38.31-12.051c5.448-39.091,13.741-92.979,18.637-97.626a16.858,16.858,0,0,1,11.648-4.834,15.516,15.516,0,0,1,5.017.7C2153.417,2160.583,2158.987,2229.682,2162.113,2271.973Z" transform="translate(-2114.786 -2154.961)" fill="#fff"></path><path id="Path_7786" data-name="Path 7786" d="M2162.113,2271.973q-4.517-1.221-9.017-2.5-19.335-5.484-38.31-12.051c5.448-39.091,13.741-92.979,18.637-97.626a16.858,16.858,0,0,1,11.648-4.834,15.516,15.516,0,0,1,5.017.7C2153.417,2160.583,2158.987,2229.682,2162.113,2271.973Z" transform="translate(-2114.786 -2154.961)" fill="none" stroke="#000" stroke-linecap="round" stroke-miterlimit="10" stroke-width="2"></path></g><path id="Path_7787" data-name="Path 7787" d="M2191.391,2233.117s-2.836,64.2-6.571,74.668-5.479,11.368-5.479,11.368l26.741,8.01Z" transform="translate(-1051.425 -1274.708)" fill="#fcaa23"></path><g id="Group_888" data-name="Group 888" transform="translate(1139.966 896.249)"><path id="Path_7788" data-name="Path 7788" d="M2315.934,2049.422a11.382,11.382,0,0,1-2.4.727,36.747,36.747,0,0,1-9.186.332c-12.169-.786-27.685-4.932-27.685-4.932-.158,14.462-2.1,34.226-4.716,54.663-3.513,27.459-8.237,56.136-11.479,74.8l-.8-.191q-4.255-1.018-8.507-2.09-5.984-1.509-11.95-3.118-4.517-1.221-9.017-2.5c-3.628-31.068-8.634-80.8-8.026-114.511.333-18.488,2.352-32.155,7.214-35.279,18.6-11.949,67.046,1.873,67.046,1.873a11.463,11.463,0,0,1,6.287,1.558,21.005,21.005,0,0,1,1.969,1.205C2314.644,2028.818,2323.225,2046.182,2315.934,2049.422Z" transform="translate(-2222.116 -2012.455)" fill="#fff"></path><path id="Path_7789" data-name="Path 7789" d="M2315.934,2049.422a11.382,11.382,0,0,1-2.4.727,36.747,36.747,0,0,1-9.186.332c-12.169-.786-27.685-4.932-27.685-4.932-.158,14.462-2.1,34.226-4.716,54.663-3.513,27.459-8.237,56.136-11.479,74.8l-.8-.191q-4.255-1.018-8.507-2.09-5.984-1.509-11.95-3.118-4.517-1.221-9.017-2.5c-3.628-31.068-8.634-80.8-8.026-114.511.333-18.488,2.352-32.155,7.214-35.279,18.6-11.949,67.046,1.873,67.046,1.873a11.463,11.463,0,0,1,6.287,1.558,21.005,21.005,0,0,1,1.969,1.205C2314.644,2028.818,2323.225,2046.182,2315.934,2049.422Z" transform="translate(-2222.116 -2012.455)" fill="none" stroke="#000" stroke-linecap="round" stroke-miterlimit="10" stroke-width="2"></path></g><path id="Path_7790" data-name="Path 7790" d="M2381.679,2066.375a10.64,10.64,0,0,1-3.3.024c-8.614-.371-24.8-4.049-26.667-4.587a.988.988,0,0,0-1,.118c-.975.882-.563,4.879-1.149,14.178-.733,11.583-2.778,28.786-2.778,28.786-.223,3.008-.668,7.04-1.268,11.727-3.414,26.73-11.789,74.719-11.789,74.719q-4.255-1.018-8.507-2.09c5.048-15.181,16.052-56.445,14.541-90.551-.924-20.854,4.3-39.378,4.989-46.437.2-2.023.3-3.13.3-3.13l.008.006c.18.107,2.876,1.69,6.443,3.4,6.25,3,15.172,6.381,17.868,2.845a3.256,3.256,0,0,0,.406-.676c3.228-7.172-2.521-19.251-2.521-19.251l6.82,1.3,2.7.516,1.763.338s.076.31.206.868a190.972,190.972,0,0,1,3.7,20.023C2382.879,2062.643,2382.82,2065.882,2381.679,2066.375Z" transform="translate(-1156.208 -1132.727)" fill="#fcaa23"></path><g id="Group_889" data-name="Group 889" transform="translate(1259.163 887.458)"><path id="Path_7791" data-name="Path 7791" d="M2670.392,1986.442c-.388,0-17.311-2.584-20.411-4.909s-10.335,10.206,3.23,11.627,20.153,2.454,20.54,0S2670.392,1986.442,2670.392,1986.442Z" transform="translate(-2645.261 -1981.245)" fill="#fff"></path><path id="Path_7792" data-name="Path 7792" d="M2670.392,1986.442c-.388,0-17.311-2.584-20.411-4.909s-10.335,10.206,3.23,11.627,20.153,2.454,20.54,0S2670.392,1986.442,2670.392,1986.442Z" transform="translate(-2645.261 -1981.245)" fill="none" stroke="#000" stroke-linecap="round" stroke-miterlimit="10" stroke-width="2"></path></g><g id="Group_890" data-name="Group 890" transform="translate(1222.723 868.847)"><path id="Path_7793" data-name="Path 7793" d="M2533.414,1919.442s-1.962-3.447-4.961-4.169-6.787,2.78-5.505,5.276c0,0-1.8-.316-3.12,2.257s.284,5.452.284,5.452-2.52.065-3.082,4.084,1.291,4.676,1.291,4.676-2.507.149-2.418,4.411,3.556,4.653,4.691,3.594l8.934-5.655Z" transform="translate(-2515.9 -1915.177)" fill="#fff"></path><path id="Path_7794" data-name="Path 7794" d="M2533.414,1919.442s-1.962-3.447-4.961-4.169-6.787,2.78-5.505,5.276c0,0-1.8-.316-3.12,2.257s.284,5.452.284,5.452-2.52.065-3.082,4.084,1.291,4.676,1.291,4.676-2.507.149-2.418,4.411,3.556,4.653,4.691,3.594l8.934-5.655Z" transform="translate(-2515.9 -1915.177)" fill="none" stroke="#000" stroke-linecap="round" stroke-miterlimit="10" stroke-width="2"></path></g><g id="Group_891" data-name="Group 891" transform="translate(1214.276 899.756)"><path id="Path_7795" data-name="Path 7795" d="M2694.354,2055.91s-1.744,74.41-59.49,82.937-145.914-23.447-145.914-23.447c9.5-4.651,3.811-79.642,2.778-83.389s-5.813-3.875-5.813-3.875c2.584-5.943,15.2-1.873,15.2-1.873l18.257-1.359,123.823,12.6Z" transform="translate(-2485.915 -2024.903)" fill="#0b065a"></path><path id="Path_7796" data-name="Path 7796" d="M2694.354,2055.91s-1.744,74.41-59.49,82.937-145.914-23.447-145.914-23.447c9.5-4.651,3.811-79.642,2.778-83.389s-5.813-3.875-5.813-3.875c2.584-5.943,15.2-1.873,15.2-1.873l18.257-1.359,123.823,12.6Z" transform="translate(-2485.915 -2024.903)" fill="none" stroke="#000" stroke-linecap="round" stroke-miterlimit="10" stroke-width="2"></path></g><g id="Group_892" data-name="Group 892" transform="translate(1227.345 868.359)"><path id="Path_7798" data-name="Path 7798" d="M2586.8,1941.281s-8.784.077-11.109-3.8-2.067-7.751-11.756-13.177-10.593-11.885-12.272-10.722-3.488,3.23-1.809,5.555c0,0-6.847-3.23-10.722-.517s-1.033,4.909-1.809,7.235-4.263,2.2-4.651,6.588,1.034,5.684.646,7.105-1.557,1.292-.714,5.167,43.861,12.143,57.554,15.244C2602.992,1962.865,2586.8,1941.281,2586.8,1941.281Z" transform="translate(-2532.308 -1913.446)" fill="#fff"></path><path id="Path_7799" data-name="Path 7799" d="M2586.8,1941.281s-8.784.077-11.109-3.8-2.067-7.751-11.756-13.177-10.593-11.885-12.272-10.722-3.488,3.23-1.809,5.555c0,0-6.847-3.23-10.722-.517s-1.033,4.909-1.809,7.235-4.263,2.2-4.651,6.588,1.034,5.684.646,7.105-1.557,1.292-.714,5.167,43.861,12.143,57.554,15.244C2602.992,1962.865,2586.8,1941.281,2586.8,1941.281Z" transform="translate(-2532.308 -1913.446)" fill="none" stroke="#000" stroke-linecap="round" stroke-miterlimit="10" stroke-width="2"></path></g><path id="Path_7800" data-name="Path 7800" d="M3159.6,1134.769s1.943-.258,2.457,6.2,0,16.923,0,16.923" transform="translate(-1755.548 -485.757)" fill="none" stroke="#fff" stroke-miterlimit="10" stroke-width="2"></path><g id="Group_893" data-name="Group 893" transform="translate(1277.447 768.96)"><path id="Path_7801" data-name="Path 7801" d="M2814.679,1569.948s-15.373,32.683-25.708,41.985-28.937,16.794-25.579,39.789.6,31.521.6,31.521l-49.865-.861a7.524,7.524,0,0,1,0,4.22s1.12.862,0,6.546-3.962,14.555-3.962,14.555,55.743,21.4,71.439,21.014,22.672-16.988,22.672-16.988,38.755,11.627,51.157,10.658c0,0,12.208-45.15,14.921-84.293,0,0,10.851-60.846-13.952-77.511C2856.406,1560.582,2828.373,1571.175,2814.679,1569.948Z" transform="translate(-2710.169 -1560.582)" fill="#fcaa23"></path><path id="Path_7802" data-name="Path 7802" d="M2814.679,1569.948s-15.373,32.683-25.708,41.985-28.937,16.794-25.579,39.789.6,31.521.6,31.521l-49.865-.861a7.524,7.524,0,0,1,0,4.22s1.12.862,0,6.546-3.962,14.555-3.962,14.555,55.743,21.4,71.439,21.014,22.672-16.988,22.672-16.988,38.755,11.627,51.157,10.658c0,0,12.208-45.15,14.921-84.293,0,0,10.851-60.846-13.952-77.511C2856.406,1560.582,2828.373,1571.175,2814.679,1569.948Z" transform="translate(-2710.169 -1560.582)" fill="none" stroke="#000" stroke-linecap="round" stroke-miterlimit="10" stroke-width="2"></path></g><g id="Group_894" data-name="Group 894" transform="translate(1379.374 760.094)"><path id="Path_7803" data-name="Path 7803" d="M3074.587,1547.341s36.042-9.431,41.081-17.828c0,0,.646-1.55,1.809,1.421s3.23,7.493,3.23,7.493a91.941,91.941,0,0,1-16.107,9.833c-13.322,6.236-30.294,13.564-32.6,13.937C3072,1562.2,3077.824,1552.059,3074.587,1547.341Z" transform="translate(-3072.004 -1529.109)" fill="#fff"></path><path id="Path_7804" data-name="Path 7804" d="M3074.587,1547.341s36.042-9.431,41.081-17.828c0,0,.646-1.55,1.809,1.421s3.23,7.493,3.23,7.493a91.941,91.941,0,0,1-16.107,9.833c-13.322,6.236-30.294,13.564-32.6,13.937C3072,1562.2,3077.824,1552.059,3074.587,1547.341Z" transform="translate(-3072.004 -1529.109)" fill="none" stroke="#000" stroke-linecap="round" stroke-miterlimit="10" stroke-width="2"></path></g><path id="Path_7805" data-name="Path 7805" d="M2826.848,1671.793s-20.8,46.183-24.093,56.066-16.858,41.662-16.858,41.662-49.5-5.49-61.665-3.036" transform="translate(-1442.824 -871.506)" fill="none" stroke="#000" stroke-linecap="round" stroke-miterlimit="10" stroke-width="2"></path><path id="Path_7806" data-name="Path 7806" d="M2943.138,2018.722s7.557.775,11.626,6.2" transform="translate(-1600.065 -1120.707)" fill="none" stroke="#000" stroke-linecap="round" stroke-miterlimit="10" stroke-width="2"></path><line id="Line_63" data-name="Line 63" x2="2.656" y2="1.139" transform="translate(1229.771 874.218)" fill="none" stroke="#000" stroke-linecap="round" stroke-miterlimit="10" stroke-width="2"></line><line id="Line_64" data-name="Line 64" x2="3.625" y2="0.858" transform="translate(1226.934 881.928)" fill="none" stroke="#000" stroke-linecap="round" stroke-miterlimit="10" stroke-width="2"></line><line id="Line_65" data-name="Line 65" x2="2.676" y2="0.304" transform="translate(1225.143 890.688)" fill="none" stroke="#000" stroke-linecap="round" stroke-miterlimit="10" stroke-width="2"></line><g id="Group_895" data-name="Group 895" transform="translate(1244.893 874.051)"><path id="Path_7807" data-name="Path 7807" d="M2594.6,1933.652s3.423,1.938,7.751,4.521" transform="translate(-2594.603 -1933.652)" fill="#fff"></path><path id="Path_7808" data-name="Path 7808" d="M2594.6,1933.652s3.423,1.938,7.751,4.521" transform="translate(-2594.603 -1933.652)" fill="none" stroke="#000" stroke-linecap="round" stroke-miterlimit="10" stroke-width="2"></path></g><line id="Line_66" data-name="Line 66" x1="39.378" y2="70.955" transform="translate(1371.558 849.151)" fill="none" stroke="#000" stroke-linecap="round" stroke-miterlimit="10" stroke-width="2"></line><g id="Group_896" data-name="Group 896" transform="translate(1261.077 846.472)"><path id="Path_7809" data-name="Path 7809" d="M2830.976,2012.275c-52.44,38.164-119.923,24.9-149.974,8.251-1.687-.933-3.253-1.879-4.7-2.825-27.13-17.829-24.155-25.074-24.155-25.074,171.171,39.26,176.464-156.881,176.464-156.881a10.325,10.325,0,0,1,6.1,2.789C2857.872,1858.129,2881.847,1975.255,2830.976,2012.275Z" transform="translate(-2652.055 -1835.746)" fill="#4052f2"></path><path id="Path_7810" data-name="Path 7810" d="M2830.976,2012.275c-52.44,38.164-119.923,24.9-149.974,8.251-1.687-.933-3.253-1.879-4.7-2.825-27.13-17.829-24.155-25.074-24.155-25.074,171.171,39.26,176.464-156.881,176.464-156.881a10.325,10.325,0,0,1,6.1,2.789C2857.872,1858.129,2881.847,1975.255,2830.976,2012.275Z" transform="translate(-2652.055 -1835.746)" fill="none" stroke="#000" stroke-linecap="round" stroke-miterlimit="10" stroke-width="2"></path></g><path id="Path_7811" data-name="Path 7811" d="M2385.443,2086.615s-.646-12.725-11.885-16.988" transform="translate(-1190.932 -1157.273)" fill="none" stroke="#000" stroke-linecap="round" stroke-miterlimit="10" stroke-width="2"></path><g id="Group_909" data-name="Group 909" transform="translate(805.924 759.849)"><g id="Group_905" data-name="Group 905" transform="translate(0 0)"><path id="Path_7830" data-name="Path 7830" d="M1036.284,1531.189l5.261-2.948h167.1l47.942,127.2H1083.115Z" transform="translate(-1036.284 -1528.241)" fill="#0b065a"></path><path id="Path_7831" data-name="Path 7831" d="M1036.284,1531.189l5.261-2.948h167.1l47.942,127.2H1083.115Z" transform="translate(-1036.284 -1528.241)" fill="none" stroke="#000" stroke-linecap="round" stroke-miterlimit="10" stroke-width="2"></path></g><path id="Path_7832" data-name="Path 7832" d="M1096.435,1557.113h149.234l39.019,101.959H1135.732Z" transform="translate(-1079.491 -1548.98)" fill="#fff" stroke="#000" stroke-linecap="round" stroke-miterlimit="10" stroke-width="2"></path><g id="Group_906" data-name="Group 906" transform="translate(16.944 8.133)"><path id="Path_7833" data-name="Path 7833" d="M1099.172,1564.212h149.215l-2.717-7.1H1096.435Z" transform="translate(-1096.435 -1557.113)" fill="#4052f2"></path><path id="Path_7834" data-name="Path 7834" d="M1099.172,1564.212h149.215l-2.717-7.1H1096.435Z" transform="translate(-1096.435 -1557.113)" fill="none" stroke="#000" stroke-linecap="round" stroke-miterlimit="10" stroke-width="2"></path></g><g id="Group_907" data-name="Group 907" transform="translate(97.71 23.624)"><path id="Path_7835" data-name="Path 7835" d="M1383.151,1612.1h64.108l16.3,39.1-63.568.973Z" transform="translate(-1383.151 -1612.104)" fill="#0b065a"></path><path id="Path_7836" data-name="Path 7836" d="M1383.151,1612.1h64.108l16.3,39.1-63.568.973Z" transform="translate(-1383.151 -1612.104)" fill="none" stroke="#000" stroke-linecap="round" stroke-miterlimit="10" stroke-width="2"></path></g><g id="Group_908" data-name="Group 908" transform="translate(42.989 117.005)"><path id="Path_7837" data-name="Path 7837" d="M1435.271,1943.6H1188.893l3.842,10.194h242.537Z" transform="translate(-1188.893 -1943.603)" fill="#4052f2"></path><path id="Path_7838" data-name="Path 7838" d="M1435.271,1943.6H1188.893l3.842,10.194h242.537Z" transform="translate(-1188.893 -1943.603)" fill="none" stroke="#000" stroke-linecap="round" stroke-miterlimit="10" stroke-width="2"></path></g><line id="Line_67" data-name="Line 67" x1="43.811" y1="117.005" transform="translate(5.261 0)" fill="none" stroke="#000" stroke-linecap="round" stroke-miterlimit="10" stroke-width="2"></line><circle id="Ellipse_37" data-name="Ellipse 37" cx="2.453" cy="2.453" r="2.453" transform="translate(145.239 67.427)" fill="#4052f2"></circle><circle id="Ellipse_38" data-name="Ellipse 38" cx="2.453" cy="2.453" r="2.453" transform="translate(137.916 67.427)" fill="#feeed3"></circle><circle id="Ellipse_39" data-name="Ellipse 39" cx="2.453" cy="2.453" r="2.453" transform="translate(151.717 67.427)" fill="#fcaa23"></circle></g><g id="Group_910" data-name="Group 910" transform="translate(843.291 784.555)"><path id="Path_7839" data-name="Path 7839" d="M1224.487,1616.668a.723.723,0,0,1-.721.722h-54.308l-.525-1.444h54.832A.723.723,0,0,1,1224.487,1616.668Z" transform="translate(-1168.934 -1615.945)" fill="#fdcc7b"></path><path id="Path_7840" data-name="Path 7840" d="M1216.519,1638.249a.725.725,0,0,1-.723.722H1177.3l-.525-1.444H1215.8A.725.725,0,0,1,1216.519,1638.249Z" transform="translate(-1174.569 -1631.447)" fill="#fdcc7b"></path><path id="Path_7841" data-name="Path 7841" d="M1204.25,1653.993a.725.725,0,0,1-.723.723h-20.5l-.525-1.446h21.021a.722.722,0,0,1,.723.723Z" transform="translate(-1178.682 -1642.756)" fill="#fdcc7b"></path><path id="Path_7842" data-name="Path 7842" d="M1222.308,1669.737a.724.724,0,0,1-.723.723h-32.828l-.525-1.446h33.353A.725.725,0,0,1,1222.308,1669.737Z" transform="translate(-1182.796 -1654.065)" fill="#fdcc7b"></path><path id="Path_7843" data-name="Path 7843" d="M1217.521,1685.487a.724.724,0,0,1-.723.721h-22.316l-.524-1.444h22.84A.724.724,0,0,1,1217.521,1685.487Z" transform="translate(-1186.909 -1665.378)" fill="#fdcc7b"></path></g><g id="Group_916" data-name="Group 916" transform="translate(857.464 819.313)"><g id="Group_911" data-name="Group 911" transform="translate(0 0)"><path id="Path_7844" data-name="Path 7844" d="M1262.974,1739.905a.569.569,0,0,1-.568.568h-42.745l-.413-1.136h43.158A.569.569,0,0,1,1262.974,1739.905Z" transform="translate(-1219.248 -1739.336)" fill="#4052f2"></path></g><g id="Group_912" data-name="Group 912" transform="translate(1.74 4.785)"><path id="Path_7845" data-name="Path 7845" d="M1256.7,1756.892a.57.57,0,0,1-.569.568h-30.3l-.413-1.137h30.71A.571.571,0,0,1,1256.7,1756.892Z" transform="translate(-1225.424 -1756.323)" fill="#4052f2"></path></g><g id="Group_913" data-name="Group 913" transform="translate(3.009 8.276)"><path id="Path_7846" data-name="Path 7846" d="M1247.046,1769.283a.571.571,0,0,1-.569.569h-16.133l-.413-1.138h16.546a.568.568,0,0,1,.569.569Z" transform="translate(-1229.931 -1768.714)" fill="#4052f2"></path></g><g id="Group_914" data-name="Group 914" transform="translate(4.279 11.766)"><path id="Path_7847" data-name="Path 7847" d="M1261.259,1781.675a.57.57,0,0,1-.569.569h-25.839l-.413-1.138h26.251A.571.571,0,0,1,1261.259,1781.675Z" transform="translate(-1234.438 -1781.106)" fill="#4052f2"></path></g><g id="Group_915" data-name="Group 915" transform="translate(5.548 15.259)"><path id="Path_7848" data-name="Path 7848" d="M1257.491,1794.072a.57.57,0,0,1-.569.568h-17.564l-.413-1.137h17.977A.57.57,0,0,1,1257.491,1794.072Z" transform="translate(-1238.945 -1793.503)" fill="#4052f2"></path></g></g><rect id="Rectangle_235" data-name="Rectangle 235" width="358.844" height="17.168" transform="translate(781.121 887.048)" fill="#0b065a" stroke="#000" stroke-linecap="round" stroke-miterlimit="10" stroke-width="2"></rect><path id="Path_7849" data-name="Path 7849" d="M3109.456,1464.422s13.177-4.651,16.708-7.406" transform="translate(-1719.532 -717.23)" fill="#fff" stroke="#000" stroke-linecap="round" stroke-miterlimit="10" stroke-width="2"></path><path id="Path_7850" data-name="Path 7850" d="M3023.545,1435.92a8.744,8.744,0,0,0,5.082.861" transform="translate(-1657.821 -702.077)" fill="#fff" stroke="#000" stroke-linecap="round" stroke-miterlimit="10" stroke-width="2"></path><ellipse id="Ellipse_40" data-name="Ellipse 40" cx="3.004" cy="1.55" rx="3.004" ry="1.55" transform="translate(1371.896 703.507) rotate(-74.164)"></ellipse><g id="Group_917" data-name="Group 917" transform="translate(1370.804 688.83)"><path id="Path_7851" data-name="Path 7851" d="M3041.583,1276.82s6.373-3.179,14.125,4.055" transform="translate(-3041.583 -1276.125)" fill="#fff"></path><path id="Path_7852" data-name="Path 7852" d="M3041.583,1276.82s6.373-3.179,14.125,4.055" transform="translate(-3041.583 -1276.125)" fill="none" stroke="#000" stroke-linecap="round" stroke-miterlimit="10" stroke-width="2"></path></g><g id="Group_921" data-name="Group 921" transform="translate(1388.044 647.661)"><g id="Group_918" data-name="Group 918" transform="translate(8.124)"><path id="Path_7853" data-name="Path 7853" d="M3131.622,1130.425a6.463,6.463,0,0,1,6.976,5.284c1.421,5.955,0,50.653,0,50.653h11.239s6.92-50.149-2.454-55.415C3144.153,1129.133,3131.622,1130.425,3131.622,1130.425Z" transform="translate(-3131.622 -1129.979)" fill="#fff"></path><path id="Path_7854" data-name="Path 7854" d="M3131.622,1130.425a6.463,6.463,0,0,1,6.976,5.284c1.421,5.955,0,50.653,0,50.653h11.239s6.92-50.149-2.454-55.415C3144.153,1129.133,3131.622,1130.425,3131.622,1130.425Z" transform="translate(-3131.622 -1129.979)" fill="none" stroke="#000" stroke-linecap="round" stroke-miterlimit="10" stroke-width="2"></path></g><g id="Group_919" data-name="Group 919" transform="translate(0 42.548)"><ellipse id="Ellipse_41" data-name="Ellipse 41" cx="21.21" cy="21.73" rx="21.21" ry="21.73" fill="#fcaa23"></ellipse><ellipse id="Ellipse_42" data-name="Ellipse 42" cx="21.21" cy="21.73" rx="21.21" ry="21.73" fill="none" stroke="#000" stroke-linecap="round" stroke-miterlimit="10" stroke-width="2"></ellipse></g><g id="Group_920" data-name="Group 920" transform="translate(3.291 45.919)"><ellipse id="Ellipse_43" data-name="Ellipse 43" cx="17.919" cy="18.359" rx="17.919" ry="18.359" fill="#fff"></ellipse><ellipse id="Ellipse_44" data-name="Ellipse 44" cx="17.919" cy="18.359" rx="17.919" ry="18.359" fill="none" stroke="#000" stroke-linecap="round" stroke-miterlimit="10" stroke-width="2"></ellipse></g></g><path id="Path_7855" data-name="Path 7855" d="M3342.029,1368.659s18.108,14.921,14.686,56.97" transform="translate(-1886.591 -653.763)" fill="none" stroke="#fff" stroke-linecap="round" stroke-miterlimit="10" stroke-width="2"></path><path id="Path_7856" data-name="Path 7856" d="M3381.979,1605.984s-.9,15.7-4.778,25.772" transform="translate(-1911.855 -824.235)" fill="none" stroke="#fff" stroke-linecap="round" stroke-miterlimit="10" stroke-width="2"></path><path id="Path_7857" data-name="Path 7857" d="M3219.673,1154.722s24.61,6.976,26.741,38.949" transform="translate(-1798.702 -500.091)" fill="none" stroke="#fff" stroke-linecap="round" stroke-miterlimit="10" stroke-width="2"></path><path id="Path_7861" data-name="Path 7861" d="M2799.753,1979.528c-29.727,26.51-81.743,36.82-116.771,40.9-1.687-.932-4.124-2.293-5.566-3.239-27.13-17.828-23.673-23.932-23.673-23.932,171.171,39.26,175.982-157.507,175.982-157.507a10.325,10.325,0,0,1,6.1,2.789C2837.443,1864.634,2838.914,1944.6,2799.753,1979.528Z" transform="translate(-1392.088 -989.274)" fill="#0502ab"></path><path id="Path_7862" data-name="Path 7862" d="M3102.876,1638.522s9.689-10.8,21.122-4.21,9.3,20.928,9.3,20.928" transform="translate(-1714.806 -843.053)" fill="none" stroke="#fff" stroke-linecap="round" stroke-miterlimit="10" stroke-width="2"></path><path id="Path_7863" data-name="Path 7863" d="M3086.234,1847.489s-12.337,28.162-14.985,49.09-7.3,25.514-7.3,25.514l-16.794-4.586Z" transform="translate(-1674.782 -997.709)" fill="#ea8b00"></path><g id="Group_922" data-name="Group 922" transform="translate(1330.075 891.62)"><line id="Line_68" data-name="Line 68" x1="1.199" y2="5.089" transform="translate(0)" fill="#fcaa23"></line><line id="Line_69" data-name="Line 69" x1="1.199" y2="5.089" transform="translate(0)" fill="none" stroke="#000" stroke-linecap="round" stroke-miterlimit="10" stroke-width="2"></line></g><path id="Path_7864" data-name="Path 7864" d="M2713.512,2064.211s28.421,9.615,46.765,15.686,39.208,1.809,42.889-2.454c0,0-7.732,14.207-24.158,12.143-16.794-2.11-66.4-20.411-66.4-20.411Z" transform="translate(-1434.473 -1153.382)" fill="#ea8b00"></path><path id="Path_7867" data-name="Path 7867" d="M1292.634,638.733s5.942-3.1,11.971,6.2" transform="translate(-414.498 -129.096)" fill="none" stroke="#fff" stroke-linecap="round" stroke-linejoin="round" stroke-width="2"></path><path id="Path_7868" data-name="Path 7868" d="M1344.15,674.164a23.236,23.236,0,0,0,6.653,5.749" transform="translate(-451.502 -154.903)" fill="none" stroke="#fff" stroke-linecap="round" stroke-linejoin="round" stroke-width="2"></path><path id="Path_7870" data-name="Path 7870" d="M1355.959,2112.329s77.367,93.629,197.3,124.728" transform="translate(-459.984 -1187.945)" fill="none" stroke="#000" stroke-linecap="round" stroke-miterlimit="10" stroke-width="2"></path><path id="Path_7871" data-name="Path 7871" d="M2095.793,2566.977s73.28,22.677,125.389,26.461" transform="translate(-991.412 -1514.522)" fill="none" stroke="#000" stroke-linecap="round" stroke-miterlimit="10" stroke-width="2"></path><g id="Group_926" data-name="Group 926" transform="translate(1070.892 874.282)"><g id="Group_923" data-name="Group 923" transform="translate(2.885)"><rect id="Rectangle_236" data-name="Rectangle 236" width="66.187" height="12.766" fill="#fff"></rect><rect id="Rectangle_237" data-name="Rectangle 237" width="66.187" height="12.766" fill="none" stroke="#000" stroke-linecap="round" stroke-miterlimit="10" stroke-width="2"></rect></g><path id="Path_7872" data-name="Path 7872" d="M1976.908,1934.47h69.073v12.766h-69.073" transform="translate(-1976.908 -1934.47)" fill="none" stroke="#4052f2" stroke-linecap="round" stroke-miterlimit="10" stroke-width="2"></path><g id="Group_924" data-name="Group 924" transform="translate(7.88 4.032)"><line id="Line_70" data-name="Line 70" x2="37.808" fill="#fff"></line><line id="Line_71" data-name="Line 71" x2="37.808" fill="none" stroke="#000" stroke-linecap="round" stroke-miterlimit="10" stroke-width="2"></line></g><g id="Group_925" data-name="Group 925" transform="translate(19.421 8.526)"><line id="Line_72" data-name="Line 72" x2="41.856" fill="#fff"></line><line id="Line_73" data-name="Line 73" x2="41.856" fill="none" stroke="#000" stroke-linecap="round" stroke-miterlimit="10" stroke-width="2"></line></g></g><g id="Group_930" data-name="Group 930" transform="translate(1058.735 859.441)"><g id="Group_927" data-name="Group 927" transform="translate(2.885)"><rect id="Rectangle_238" data-name="Rectangle 238" width="66.187" height="12.766" fill="#fff"></rect><rect id="Rectangle_239" data-name="Rectangle 239" width="66.187" height="12.766" fill="none" stroke="#000" stroke-linecap="round" stroke-miterlimit="10" stroke-width="2"></rect></g><path id="Path_7873" data-name="Path 7873" d="M1933.751,1881.786h69.072v12.766h-69.072" transform="translate(-1933.751 -1881.786)" fill="none" stroke="#fcaa23" stroke-linecap="round" stroke-miterlimit="10" stroke-width="2"></path><g id="Group_928" data-name="Group 928" transform="translate(7.88 4.032)"><line id="Line_74" data-name="Line 74" x2="37.808" fill="#fff"></line><line id="Line_75" data-name="Line 75" x2="37.808" fill="none" stroke="#000" stroke-linecap="round" stroke-miterlimit="10" stroke-width="2"></line></g><g id="Group_929" data-name="Group 929" transform="translate(19.421 8.526)"><line id="Line_76" data-name="Line 76" x2="41.856" fill="#fff"></line><line id="Line_77" data-name="Line 77" x2="41.856" fill="none" stroke="#000" stroke-linecap="round" stroke-miterlimit="10" stroke-width="2"></line></g></g><g id="Group_931" data-name="Group 931" transform="translate(1076.435 904.216)"><path id="Path_7874" data-name="Path 7874" d="M2008.471,2040.735v126.816q-5.975-2.191-11.885-4.49V2040.735Z" transform="translate(-1996.586 -2040.735)" fill="#feeed3"></path><path id="Path_7875" data-name="Path 7875" d="M2008.471,2040.735v126.816q-5.975-2.191-11.885-4.49V2040.735Z" transform="translate(-1996.586 -2040.735)" fill="none" stroke="#000" stroke-miterlimit="10" stroke-width="2"></path></g><g id="Group_933" data-name="Group 933" transform="translate(1098.616 811.592)"><g id="Group_932" data-name="Group 932" transform="translate(0)"><path id="Path_7876" data-name="Path 7876" d="M2080.006,1724.122a1.5,1.5,0,0,1-.813-.748l-3.771-8.456a.927.927,0,0,1,.732-1.327,1.591,1.591,0,0,1,1.7.844l3.1,6.962,16.59-9.316a1.562,1.562,0,0,1,1.843.392.949.949,0,0,1-.17,1.523l-17.975,10.094a1.433,1.433,0,0,1-1.159.063Z" transform="translate(-2075.328 -1711.926)" fill="#0b065a"></path></g></g><circle id="Ellipse_47" data-name="Ellipse 47" cx="7.209" cy="7.209" r="7.209" transform="translate(889.752 712.225)" fill="#0b065a"></circle><circle id="Ellipse_48" data-name="Ellipse 48" cx="8.964" cy="8.964" r="8.964" transform="translate(1083.753 565.045)" fill="#0b065a"></circle><circle id="Ellipse_49" data-name="Ellipse 49" cx="8.964" cy="8.964" r="8.964" transform="translate(924.801 953.749)" fill="#0b065a"></circle><circle id="Ellipse_50" data-name="Ellipse 50" cx="5.29" cy="5.29" r="5.29" transform="translate(975.52 704.125)" fill="#fcaa23"></circle><circle id="Ellipse_51" data-name="Ellipse 51" cx="5.29" cy="5.29" r="5.29" transform="translate(1085.672 617.702)" fill="#fcaa23"></circle><circle id="Ellipse_52" data-name="Ellipse 52" cx="5.29" cy="5.29" r="5.29" transform="translate(1056.344 714.144)" fill="#fcaa23"></circle><g id="Group_934" data-name="Group 934" transform="translate(1100.852 672.519)"><circle id="Ellipse_54" data-name="Ellipse 54" cx="3.104" cy="3.104" r="3.104" fill="#fff"></circle><circle id="Ellipse_55" data-name="Ellipse 55" cx="3.104" cy="3.104" r="3.104" fill="none" stroke="#000" stroke-linecap="round" stroke-miterlimit="10" stroke-width="2"></circle></g><g id="Group_935" data-name="Group 935" transform="translate(1103.956 764.329)"><circle id="Ellipse_56" data-name="Ellipse 56" cx="6.842" cy="6.842" r="6.842" fill="#fff"></circle><circle id="Ellipse_57" data-name="Ellipse 57" cx="6.842" cy="6.842" r="6.842" fill="none" stroke="#000" stroke-linecap="round" stroke-miterlimit="10" stroke-width="2"></circle></g></g></svg>