<svg xmlns="http://www.w3.org/2000/svg" width="866.069" height="624.265" viewBox="0 0 866.069 624.265"><g id="Group_843" data-name="Group 843" transform="translate(-812.142 -460)"><path id="Path_7428" data-name="Path 7428" d="M1137.492,1077.483s-147.67-18.162-123.365-138.3,38.1-127.063-6.164-268.06,234.753-298.29,373.076-153.644,213.807,50.245,311.028,134,33.2,327.205-74.694,426.007Z" transform="translate(-136.258 0)" fill="#feeed3"></path><g id="Group_728" data-name="Group 728" transform="translate(1055.109 641.365)"><path id="Path_7429" data-name="Path 7429" d="M1667.291,1100.223s7.644,7.777,7.124,9.531-7.124,2.143-7.124,2.143Z" transform="translate(-1667.291 -1100.223)" fill="#fff"></path><path id="Path_7430" data-name="Path 7430" d="M1667.291,1100.223s7.644,7.777,7.124,9.531-7.124,2.143-7.124,2.143Z" transform="translate(-1667.291 -1100.223)" fill="none" stroke="#000" stroke-linecap="round" stroke-miterlimit="10" stroke-width="2"></path></g><line id="Line_43" data-name="Line 43" x2="609.227" transform="translate(813.142 1077.919)" fill="#0b065a" stroke="#000" stroke-linecap="round" stroke-miterlimit="10" stroke-width="2"></line><line id="Line_44" data-name="Line 44" x2="137.682" transform="translate(1449.591 1077.919)" fill="#0b065a" stroke="#000" stroke-linecap="round" stroke-miterlimit="10" stroke-width="2"></line><g id="Group_751" data-name="Group 751" transform="translate(1288.957 737.129)"><g id="Group_731" data-name="Group 731" transform="translate(164.203 84.169)"><g id="Group_729" data-name="Group 729" transform="translate(4.187)"><rect id="Rectangle_163" data-name="Rectangle 163" width="8.374" height="88.893" fill="#0502ab"></rect><rect id="Rectangle_164" data-name="Rectangle 164" width="8.374" height="88.893" fill="none" stroke="#000" stroke-linecap="round" stroke-miterlimit="10" stroke-width="2"></rect></g><g id="Group_730" data-name="Group 730"><rect id="Rectangle_165" data-name="Rectangle 165" width="8.374" height="88.893" fill="#4052f2"></rect><rect id="Rectangle_166" data-name="Rectangle 166" width="8.374" height="88.893" fill="none" stroke="#000" stroke-linecap="round" stroke-miterlimit="10" stroke-width="2"></rect></g></g><g id="Group_734" data-name="Group 734" transform="translate(100.271 84.169)"><g id="Group_732" data-name="Group 732" transform="translate(4.187)"><rect id="Rectangle_167" data-name="Rectangle 167" width="8.374" height="88.893" fill="#0502ab"></rect><rect id="Rectangle_168" data-name="Rectangle 168" width="8.374" height="88.893" fill="none" stroke="#000" stroke-linecap="round" stroke-miterlimit="10" stroke-width="2"></rect></g><g id="Group_733" data-name="Group 733"><rect id="Rectangle_169" data-name="Rectangle 169" width="8.374" height="88.893" fill="#4052f2"></rect><rect id="Rectangle_170" data-name="Rectangle 170" width="8.374" height="88.893" fill="none" stroke="#000" stroke-linecap="round" stroke-miterlimit="10" stroke-width="2"></rect></g></g><g id="Group_737" data-name="Group 737" transform="translate(14.813 183.369)"><g id="Group_735" data-name="Group 735" transform="translate(4.187)"><rect id="Rectangle_171" data-name="Rectangle 171" width="8.374" height="157.421" fill="#0502ab"></rect><rect id="Rectangle_172" data-name="Rectangle 172" width="8.374" height="157.421" fill="none" stroke="#000" stroke-linecap="round" stroke-miterlimit="10" stroke-width="2"></rect></g><g id="Group_736" data-name="Group 736"><rect id="Rectangle_173" data-name="Rectangle 173" width="8.374" height="157.421" fill="#4052f2"></rect><rect id="Rectangle_174" data-name="Rectangle 174" width="8.374" height="157.421" fill="none" stroke="#000" stroke-linecap="round" stroke-miterlimit="10" stroke-width="2"></rect></g></g><g id="Group_740" data-name="Group 740" transform="translate(64.606 183.369)"><g id="Group_738" data-name="Group 738" transform="translate(4.187)"><rect id="Rectangle_175" data-name="Rectangle 175" width="8.374" height="157.421" fill="#0502ab"></rect><rect id="Rectangle_176" data-name="Rectangle 176" width="8.374" height="157.421" fill="none" stroke="#000" stroke-linecap="round" stroke-miterlimit="10" stroke-width="2"></rect></g><g id="Group_739" data-name="Group 739"><rect id="Rectangle_177" data-name="Rectangle 177" width="8.374" height="157.421" fill="#4052f2"></rect><rect id="Rectangle_178" data-name="Rectangle 178" width="8.374" height="157.421" fill="none" stroke="#000" stroke-linecap="round" stroke-miterlimit="10" stroke-width="2"></rect></g></g><g id="Group_743" data-name="Group 743" transform="translate(99.512 183.369)"><g id="Group_741" data-name="Group 741" transform="translate(4.187)"><rect id="Rectangle_179" data-name="Rectangle 179" width="8.374" height="157.421" fill="#0502ab"></rect><rect id="Rectangle_180" data-name="Rectangle 180" width="8.374" height="157.421" fill="none" stroke="#000" stroke-linecap="round" stroke-miterlimit="10" stroke-width="2"></rect></g><g id="Group_742" data-name="Group 742"><rect id="Rectangle_181" data-name="Rectangle 181" width="8.374" height="157.421" fill="#4052f2"></rect><rect id="Rectangle_182" data-name="Rectangle 182" width="8.374" height="157.421" fill="none" stroke="#000" stroke-linecap="round" stroke-miterlimit="10" stroke-width="2"></rect></g></g><g id="Group_746" data-name="Group 746" transform="translate(164.203 183.369)"><g id="Group_744" data-name="Group 744" transform="translate(4.187)"><rect id="Rectangle_183" data-name="Rectangle 183" width="8.374" height="157.421" fill="#0502ab"></rect><rect id="Rectangle_184" data-name="Rectangle 184" width="8.374" height="157.421" fill="none" stroke="#000" stroke-linecap="round" stroke-miterlimit="10" stroke-width="2"></rect></g><g id="Group_745" data-name="Group 745"><rect id="Rectangle_185" data-name="Rectangle 185" width="8.374" height="157.421" fill="#4052f2"></rect><rect id="Rectangle_186" data-name="Rectangle 186" width="8.374" height="157.421" fill="none" stroke="#000" stroke-linecap="round" stroke-miterlimit="10" stroke-width="2"></rect></g></g><g id="Group_747" data-name="Group 747" transform="translate(85.599 0)"><rect id="Rectangle_187" data-name="Rectangle 187" width="93.331" height="88.464" fill="#4052f2"></rect><rect id="Rectangle_188" data-name="Rectangle 188" width="93.331" height="88.464" fill="none" stroke="#000" stroke-linecap="round" stroke-miterlimit="10" stroke-width="2"></rect></g><g id="Group_748" data-name="Group 748" transform="translate(178.929 0)"><path id="Path_7431" data-name="Path 7431" d="M3124.4,1526.736l7.157-2.29v-86.173H3124.4Z" transform="translate(-3124.405 -1438.273)" fill="#0502ab"></path><path id="Path_7432" data-name="Path 7432" d="M3124.4,1526.736l7.157-2.29v-86.173H3124.4Z" transform="translate(-3124.405 -1438.273)" fill="none" stroke="#000" stroke-linecap="round" stroke-miterlimit="10" stroke-width="2"></path></g><g id="Group_749" data-name="Group 749" transform="translate(92.756 173.063)"><rect id="Rectangle_189" data-name="Rectangle 189" width="93.331" height="13.885" fill="#4052f2"></rect><rect id="Rectangle_190" data-name="Rectangle 190" width="93.331" height="13.885" fill="none" stroke="#000" stroke-linecap="round" stroke-miterlimit="10" stroke-width="2"></rect></g><g id="Group_750" data-name="Group 750" transform="translate(0 173.063)"><rect id="Rectangle_191" data-name="Rectangle 191" width="92.756" height="13.885" fill="#0502ab"></rect><rect id="Rectangle_192" data-name="Rectangle 192" width="92.756" height="13.885" fill="none" stroke="#000" stroke-linecap="round" stroke-miterlimit="10" stroke-width="2"></rect></g></g><g id="Group_752" data-name="Group 752" transform="translate(1263.183 1016.531)"><path id="Path_7433" data-name="Path 7433" d="M2427.347,2425.685l-1.854,31.086-21.531-1.708-2.167-30.493Z" transform="translate(-2401.795 -2424.569)" fill="#fff"></path><path id="Path_7434" data-name="Path 7434" d="M2427.347,2425.685l-1.854,31.086-21.531-1.708-2.167-30.493Z" transform="translate(-2401.795 -2424.569)" fill="none" stroke="#000" stroke-linecap="round" stroke-miterlimit="10" stroke-width="2"></path></g><g id="Group_753" data-name="Group 753" transform="translate(1209.878 1037.482)"><path id="Path_7435" data-name="Path 7435" d="M2290.845,2506.175s-12.461,3.488-24.931-7.436c0,0-1.138-1.951-5.79,5.88s-44.634,15.919-46.3,22.937,7.02,19.164,34.926,13.838,30.837,1.1,46.151-3.731C2294.9,2537.663,2298.072,2505.711,2290.845,2506.175Z" transform="translate(-2213.628 -2498.523)" fill="#4052f2"></path><path id="Path_7436" data-name="Path 7436" d="M2290.845,2506.175s-12.461,3.488-24.931-7.436c0,0-1.138-1.951-5.79,5.88s-44.634,15.919-46.3,22.937,7.02,19.164,34.926,13.838,30.837,1.1,46.151-3.731C2294.9,2537.663,2298.072,2505.711,2290.845,2506.175Z" transform="translate(-2213.628 -2498.523)" fill="none" stroke="#000" stroke-linecap="round" stroke-miterlimit="10" stroke-width="2"></path></g><g id="Group_754" data-name="Group 754" transform="translate(1320.743 1018.092)"><path id="Path_7437" data-name="Path 7437" d="M2630.536,2431.194l-1.854,31.086-21.531-1.708-2.167-30.493Z" transform="translate(-2604.984 -2430.078)" fill="#fff"></path><path id="Path_7438" data-name="Path 7438" d="M2630.536,2431.194l-1.854,31.086-21.531-1.708-2.167-30.493Z" transform="translate(-2604.984 -2430.078)" fill="none" stroke="#000" stroke-linecap="round" stroke-miterlimit="10" stroke-width="2"></path></g><g id="Group_755" data-name="Group 755" transform="translate(1267.438 1039.042)"><path id="Path_7439" data-name="Path 7439" d="M2494,2512.322s-12.424,2.849-24.893-8.074c0,0-1.138-1.951-5.79,5.88s-44.634,15.919-46.3,22.937,7.021,19.164,34.926,13.839,30.837,1.1,46.15-3.731C2498.09,2543.172,2501.223,2511.858,2494,2512.322Z" transform="translate(-2416.817 -2504.032)" fill="#4052f2"></path><path id="Path_7440" data-name="Path 7440" d="M2494,2512.322s-12.424,2.849-24.893-8.074c0,0-1.138-1.951-5.79,5.88s-44.634,15.919-46.3,22.937,7.021,19.164,34.926,13.839,30.837,1.1,46.15-3.731C2498.09,2543.172,2501.223,2511.858,2494,2512.322Z" transform="translate(-2416.817 -2504.032)" fill="none" stroke="#000" stroke-linecap="round" stroke-miterlimit="10" stroke-width="2"></path></g><g id="Group_760" data-name="Group 760" transform="translate(1235.337 845.775)"><g id="Group_756" data-name="Group 756" transform="translate(0)"><path id="Path_7441" data-name="Path 7441" d="M2410.537,1825.538s-93.07,1-104.5,12.7,19.452,143.63,21.313,162.244c0,0,27.727,9.2,34.641-1.971,0,0,2.159-86.5-3.773-112.3h9.57s18.79,105.563,18.258,114.87c0,0,11.392,10.507,33.2,2.264,0,0,5.125-93.048-.991-116.98,0,0,54.953,1.993,82.089-.154,8.286-.656,14.433-10.753,15.235-14.737,3.512-17.45,1.728-28.719,1.728-28.719S2453.615,1811.179,2410.537,1825.538Z" transform="translate(-2303.501 -1821.794)" fill="#0b065a"></path><path id="Path_7442" data-name="Path 7442" d="M2410.537,1825.538s-93.07,1-104.5,12.7,19.452,143.63,21.313,162.244c0,0,27.727,9.2,34.641-1.971,0,0,2.159-86.5-3.773-112.3h9.57s18.79,105.563,18.258,114.87c0,0,11.392,10.507,33.2,2.264,0,0,5.125-93.048-.991-116.98,0,0,54.953,1.993,82.089-.154,8.286-.656,14.433-10.753,15.235-14.737,3.512-17.45,1.728-28.719,1.728-28.719S2453.615,1811.179,2410.537,1825.538Z" transform="translate(-2303.501 -1821.794)" fill="none" stroke="#000" stroke-linecap="round" stroke-miterlimit="10" stroke-width="2"></path></g><g id="Group_757" data-name="Group 757" transform="translate(43.365 40.839)"><path id="Path_7443" data-name="Path 7443" d="M2467.928,1989.534s-3.623-15.8-11.349-23.579" transform="translate(-2456.579 -1965.955)" fill="#0b065a"></path><path id="Path_7444" data-name="Path 7444" d="M2467.928,1989.534s-3.623-15.8-11.349-23.579" transform="translate(-2456.579 -1965.955)" fill="none" stroke="#000" stroke-linecap="round" stroke-miterlimit="10" stroke-width="2"></path></g><g id="Group_758" data-name="Group 758" transform="translate(107.278 50.445)"><path id="Path_7445" data-name="Path 7445" d="M2689.663,2013.991s-2.043-10.9-7.47-14.126" transform="translate(-2682.193 -1999.865)" fill="#0b065a"></path><path id="Path_7446" data-name="Path 7446" d="M2689.663,2013.991s-2.043-10.9-7.47-14.126" transform="translate(-2682.193 -1999.865)" fill="none" stroke="#000" stroke-linecap="round" stroke-miterlimit="10" stroke-width="2"></path></g><g id="Group_759" data-name="Group 759" transform="translate(60.364 3.744)"><path id="Path_7447" data-name="Path 7447" d="M2520.507,1895.682s-11.79-47.492,5.524-53.826,37.228-6.847,37.228-6.847" transform="translate(-2516.587 -1835.009)" fill="#0b065a"></path><path id="Path_7448" data-name="Path 7448" d="M2520.507,1895.682s-11.79-47.492,5.524-53.826,37.228-6.847,37.228-6.847" transform="translate(-2516.587 -1835.009)" fill="none" stroke="#000" stroke-linecap="round" stroke-miterlimit="10" stroke-width="2"></path></g></g><g id="Group_761" data-name="Group 761" transform="translate(1128.205 689.911)"><path id="Path_7449" data-name="Path 7449" d="M1925.321,1312.36s6.97-7.745,9.165-15.748a83.217,83.217,0,0,1,9.681-21.04c2.453-3.485,4.26-5.379,5.551-2.754s-4.389,8.563-3.873,16.824c0,0,23.957-12.743,31.056-9.387,0,0,1.145,1,.568,1.9,0,0,1.921-.885,2.727.1.516.629-.514,1.952-.963,1.969,0,0,.925-.215,1.162.559.736,2.41-9.832,6.153-11.639,8.347,0,0,5.486-1.872,6.325-.581s-9.847,5.266-15.978,8.751-18.551,10.933-20.422,17.129S1925.321,1312.36,1925.321,1312.36Z" transform="translate(-1925.321 -1271.591)" fill="#fff"></path><path id="Path_7450" data-name="Path 7450" d="M1925.321,1312.36s6.97-7.745,9.165-15.748a83.217,83.217,0,0,1,9.681-21.04c2.453-3.485,4.26-5.379,5.551-2.754s-4.389,8.563-3.873,16.824c0,0,23.957-12.743,31.056-9.387,0,0,1.145,1,.568,1.9,0,0,1.921-.885,2.727.1.516.629-.514,1.952-.963,1.969,0,0,.925-.215,1.162.559.736,2.41-9.832,6.153-11.639,8.347,0,0,5.486-1.872,6.325-.581s-9.847,5.266-15.978,8.751-18.551,10.933-20.422,17.129S1925.321,1312.36,1925.321,1312.36Z" transform="translate(-1925.321 -1271.591)" fill="none" stroke="#000" stroke-linecap="round" stroke-miterlimit="10" stroke-width="2"></path></g><path id="Path_7451" data-name="Path 7451" d="M1934.023,1394.816s8.755,3.865,16.8,1.622c0,0-6.632,5.153-8.923,8.971s-11.69-4.915-11.69-4.915Z" transform="translate(-800.617 -669.997)" fill="#fcaa23"></path><g id="Group_762" data-name="Group 762" transform="translate(1324.577 779.371)"><path id="Path_7452" data-name="Path 7452" d="M2623.536,1611.752s-3.3,39.351-5.02,46.223c0,0,84.805.19,117.529,16.663a13.18,13.18,0,0,1,7.239,11.357l.066,2.088s-.553.589,3.275-2.584a11.231,11.231,0,0,0,4.071-8.826c0-.046,0-.093,0-.139-.095-4.676,1.352-68.505.594-85.581-.6-13.574-10.9,15.845-24.643,17.992S2623.536,1611.752,2623.536,1611.752Z" transform="translate(-2618.516 -1587.389)" fill="#0b065a"></path><path id="Path_7453" data-name="Path 7453" d="M2623.536,1611.752s-3.3,39.351-5.02,46.223c0,0,84.805.19,117.529,16.663a13.18,13.18,0,0,1,7.239,11.357l.066,2.088s-.553.589,3.275-2.584a11.231,11.231,0,0,0,4.071-8.826c0-.046,0-.093,0-.139-.095-4.676,1.352-68.505.594-85.581-.6-13.574-10.9,15.845-24.643,17.992S2623.536,1611.752,2623.536,1611.752Z" transform="translate(-2618.516 -1587.389)" fill="none" stroke="#000" stroke-linecap="round" stroke-miterlimit="10" stroke-width="2"></path></g><path id="Path_7454" data-name="Path 7454" d="M2706.218,938.836s-6.728-26.2,9.734-36.359c0,0-1.431-2.434,3.292-5.44s18.609-11.738,38.077,4.008,16.032,36.932,13.885,42.944-12.167,27.054-19.038,19.324S2706.218,938.836,2706.218,938.836Z" transform="translate(-1355.822 -309.553)" fill="#0b065a"></path><g id="Group_763" data-name="Group 763" transform="translate(1378.475 651.359)"><path id="Path_7455" data-name="Path 7455" d="M2830.208,1137.961s3.957,20.2,5.388,21.773-11.022,22.832-18.323,21.329-7.229-11.881-7.229-11.881,3.006-5.439-.859-22.975S2830.208,1137.961,2830.208,1137.961Z" transform="translate(-2808.778 -1135.502)" fill="#fff"></path><path id="Path_7456" data-name="Path 7456" d="M2830.208,1137.961s3.957,20.2,5.388,21.773-11.022,22.832-18.323,21.329-7.229-11.881-7.229-11.881,3.006-5.439-.859-22.975S2830.208,1137.961,2830.208,1137.961Z" transform="translate(-2808.778 -1135.502)" fill="none" stroke="#000" stroke-linecap="round" stroke-miterlimit="10" stroke-width="2"></path></g><path id="Path_7457" data-name="Path 7457" d="M2813.035,1153.9s7.539,1.908,19.754-8.779l-1.938-9.617-19.589,11.43Z" transform="translate(-1432.083 -484.143)" fill="#fcaa23"></path><g id="Group_764" data-name="Group 764" transform="translate(1317.616 679.87)"><path id="Path_7458" data-name="Path 7458" d="M2653.28,1239.39s-17.822,5.193-29.846,9.106-16.264,10.514-19.413,21.489-10.074,55.333-10.074,55.333l13.6,34.737,134.507-1.025s2.96-10.256,3.532-14.979c.4-3.294,2.335-33.141,3.248-60.164.94-27.835-17.6-34.3-17.6-34.3-9.254-5.452-32.871-9.576-45.754-13.442l-21.214,28.429Z" transform="translate(-2593.946 -1236.147)" fill="#0b065a"></path><path id="Path_7459" data-name="Path 7459" d="M2653.28,1239.39s-17.822,5.193-29.846,9.106-16.264,10.514-19.413,21.489-10.074,55.333-10.074,55.333l13.6,34.737,134.507-1.025s2.96-10.256,3.532-14.979c.4-3.294,2.335-33.141,3.248-60.164.94-27.835-17.6-34.3-17.6-34.3-9.254-5.452-32.871-9.576-45.754-13.442l-21.214,28.429Z" transform="translate(-2593.946 -1236.147)" fill="none" stroke="#000" stroke-linecap="round" stroke-miterlimit="10" stroke-width="2"></path></g><g id="Group_765" data-name="Group 765" transform="translate(1373.411 690.191)"><path id="Path_7460" data-name="Path 7460" d="M2812.41,1272.581s8.66,5.082,0,25.408-16.444,32.54-17.611,33.5c0,0-5.732-32.364-3.292-47.81,1.752-11.1,6.532-11.094,6.532-11.094Z" transform="translate(-2790.903 -1272.581)" fill="#fff"></path><path id="Path_7461" data-name="Path 7461" d="M2812.41,1272.581s8.66,5.082,0,25.408-16.444,32.54-17.611,33.5c0,0-5.732-32.364-3.292-47.81,1.752-11.1,6.532-11.094,6.532-11.094Z" transform="translate(-2790.903 -1272.581)" fill="none" stroke="#000" stroke-linecap="round" stroke-miterlimit="10" stroke-width="2"></path></g><g id="Group_766" data-name="Group 766" transform="translate(1336.082 727.349)"><path id="Path_7462" data-name="Path 7462" d="M2663.688,1403.749s-2.839,46.654-4.557,61.827" transform="translate(-2659.131 -1403.749)" fill="#0b065a"></path><path id="Path_7463" data-name="Path 7463" d="M2663.688,1403.749s-2.839,46.654-4.557,61.827" transform="translate(-2659.131 -1403.749)" fill="none" stroke="#000" stroke-linecap="round" stroke-miterlimit="10" stroke-width="2"></path></g><g id="Group_769" data-name="Group 769" transform="translate(1135.744 1018.092)"><g id="Group_767" data-name="Group 767" transform="translate(1.84)"><path id="Path_7464" data-name="Path 7464" d="M1958.427,2430.078l3.813,32.2,21.531-1.708,2.167-30.493Z" transform="translate(-1958.427 -2430.078)" fill="#fff"></path><path id="Path_7465" data-name="Path 7465" d="M1958.427,2430.078l3.813,32.2,21.531-1.708,2.167-30.493Z" transform="translate(-1958.427 -2430.078)" fill="none" stroke="#000" stroke-linecap="round" stroke-miterlimit="10" stroke-width="2"></path></g><g id="Group_768" data-name="Group 768" transform="translate(0 19.817)"><path id="Path_7466" data-name="Path 7466" d="M1956.046,2510.139a38.814,38.814,0,0,0,26.255-9.891s1.139-1.951,5.791,5.88,44.634,15.92,46.3,22.937-7.02,19.164-34.926,13.839-30.837,1.1-46.15-3.731C1953.315,2539.172,1948.82,2509.675,1956.046,2510.139Z" transform="translate(-1951.933 -2500.032)" fill="#0b065a"></path><path id="Path_7467" data-name="Path 7467" d="M1956.046,2510.139a38.814,38.814,0,0,0,26.255-9.891s1.139-1.951,5.791,5.88,44.634,15.92,46.3,22.937-7.02,19.164-34.926,13.839-30.837,1.1-46.15-3.731C1953.315,2539.172,1948.82,2509.675,1956.046,2510.139Z" transform="translate(-1951.933 -2500.032)" fill="none" stroke="#000" stroke-linecap="round" stroke-miterlimit="10" stroke-width="2"></path></g></g><g id="Group_772" data-name="Group 772" transform="translate(1155.775 1016.531)"><g id="Group_770" data-name="Group 770" transform="translate(3.798)"><path id="Path_7468" data-name="Path 7468" d="M2036.049,2425.685l1.855,31.086,21.531-1.708,2.167-30.493Z" transform="translate(-2036.049 -2424.569)" fill="#fff"></path><path id="Path_7469" data-name="Path 7469" d="M2036.049,2425.685l1.855,31.086,21.531-1.708,2.167-30.493Z" transform="translate(-2036.049 -2424.569)" fill="none" stroke="#000" stroke-linecap="round" stroke-miterlimit="10" stroke-width="2"></path></g><g id="Group_771" data-name="Group 771" transform="translate(0 20.95)"><path id="Path_7470" data-name="Path 7470" d="M2026.755,2508.629a38.815,38.815,0,0,0,26.255-9.89s1.138-1.951,5.791,5.88,44.634,15.919,46.3,22.937-7.021,19.164-34.926,13.838-30.837,1.1-46.151-3.731C2024.024,2537.663,2019.529,2508.166,2026.755,2508.629Z" transform="translate(-2022.642 -2498.523)" fill="#0b065a"></path><path id="Path_7471" data-name="Path 7471" d="M2026.755,2508.629a38.815,38.815,0,0,0,26.255-9.89s1.138-1.951,5.791,5.88,44.634,15.919,46.3,22.937-7.021,19.164-34.926,13.838-30.837,1.1-46.151-3.731C2024.024,2537.663,2019.529,2508.166,2026.755,2508.629Z" transform="translate(-2022.642 -2498.523)" fill="none" stroke="#000" stroke-linecap="round" stroke-miterlimit="10" stroke-width="2"></path></g></g><g id="Group_773" data-name="Group 773" transform="translate(1475.148 809.62)"><path id="Path_7472" data-name="Path 7472" d="M3150.037,1694.168l30.481,268.4h12.8l-28.042-268.4Z" transform="translate(-3150.037 -1694.168)" fill="#fcaa23"></path><path id="Path_7473" data-name="Path 7473" d="M3150.037,1694.168l30.481,268.4h12.8l-28.042-268.4Z" transform="translate(-3150.037 -1694.168)" fill="none" stroke="#000" stroke-linecap="round" stroke-miterlimit="10" stroke-width="2"></path></g><g id="Group_774" data-name="Group 774" transform="translate(1089.275 809.62)"><path id="Path_7474" data-name="Path 7474" d="M1831.18,1694.168l-30.481,268.4h-12.8l28.043-268.4Z" transform="translate(-1787.896 -1694.168)" fill="#fcaa23"></path><path id="Path_7475" data-name="Path 7475" d="M1831.18,1694.168l-30.481,268.4h-12.8l28.043-268.4Z" transform="translate(-1787.896 -1694.168)" fill="none" stroke="#000" stroke-linecap="round" stroke-miterlimit="10" stroke-width="2"></path></g><g id="Group_775" data-name="Group 775" transform="translate(957.446 852.525)"><path id="Path_7476" data-name="Path 7476" d="M1429.884,1846.408l76.655-.644s42.548-2.511,50.707,13.521c5.4,10.613-4.328,155.247-4.328,155.247s-20.183,8.159-32.637,0c0,0-10.306,5.654-18.394,1.217-3.393-1.862-22.508-78.833-18.93-113.085,0,0-163.938,13.742-160.359-13.1S1429.884,1846.408,1429.884,1846.408Z" transform="translate(-1322.539 -1845.621)" fill="#fff"></path><path id="Path_7477" data-name="Path 7477" d="M1429.884,1846.408l76.655-.644s42.548-2.511,50.707,13.521c5.4,10.613-4.328,155.247-4.328,155.247s-20.183,8.159-32.637,0c0,0-10.306,5.654-18.394,1.217-3.393-1.862-22.508-78.833-18.93-113.085,0,0-163.938,13.742-160.359-13.1S1429.884,1846.408,1429.884,1846.408Z" transform="translate(-1322.539 -1845.621)" fill="none" stroke="#000" stroke-linecap="round" stroke-miterlimit="10" stroke-width="2"></path></g><path id="Path_7478" data-name="Path 7478" d="M1891.246,2036.156s9.447.644,16.319-1.073,15.459,111.725,15.459,111.725l4.568-1.485-8.074-116.614s-16.533,4.083-28.558,5.587Z" transform="translate(-772.489 -1124.318)" fill="#fcaa23"></path><path id="Path_7479" data-name="Path 7479" d="M1439.947,1850.223s-25.015,13.492-28.379,25.265,2.076,24.84,45.019,21.026,74.063-10.112,75.109-4.958-12.411,37.79-3.965,84.456,18.132,43.659,18.132,43.659-14.6,3.77-23.524-2.147c0,0-8.207-42.944-10.247-116.286l-1.861-.771s-20.577,6.263-60.8,7.121-130.119,4.8-124.536-16.032,108.146-41.19,108.146-41.19Z" transform="translate(-366.602 -996.395)" fill="#fcaa23"></path><g id="Group_776" data-name="Group 776" transform="translate(1347.897 595.695)"><path id="Path_7480" data-name="Path 7480" d="M2763.029,982.616c-1.289,6.3-5.583,5.295-5.583,5.295s-2.861,15.031-23.476,22.19-28.343-13.6-31.49-20.47-1.147-11.881.858-17.034.286-12.026,4.15-22.331,12.184-11.258,12.184-11.258a7.673,7.673,0,0,1,2.107,3.221v0c1.3,3.482,1.558,9.079,1.456,17.768-.144,12.167,21.329,11.022,22.759,13.883a29.182,29.182,0,0,1,1.45,4.17v0c.887,3.037,1.6,5.867,1.7,3.416a13.242,13.242,0,0,1,2-6.419,7.388,7.388,0,0,1,6.728-3.031C2762.171,972.6,2764.318,976.316,2763.029,982.616Z" transform="translate(-2700.838 -939.007)" fill="#fff"></path><path id="Path_7481" data-name="Path 7481" d="M2763.029,982.616c-1.289,6.3-5.583,5.295-5.583,5.295s-2.861,15.031-23.476,22.19-28.343-13.6-31.49-20.47-1.147-11.881.858-17.034.286-12.026,4.15-22.331,12.184-11.258,12.184-11.258a7.673,7.673,0,0,1,2.107,3.221v0c1.3,3.482,1.558,9.079,1.456,17.768-.144,12.167,21.329,11.022,22.759,13.883a29.182,29.182,0,0,1,1.45,4.17v0c.887,3.037,1.6,5.867,1.7,3.416a13.242,13.242,0,0,1,2-6.419,7.388,7.388,0,0,1,6.728-3.031C2762.171,972.6,2764.318,976.316,2763.029,982.616Z" transform="translate(-2700.838 -939.007)" fill="none" stroke="#000" stroke-linecap="round" stroke-miterlimit="10" stroke-width="2"></path></g><path id="Path_7482" data-name="Path 7482" d="M2793.592,986.795h-.112s-18.25-5.13-24.5-11.047c-6.21-5.873-1.238-25.07-1.162-25.361,1.3,3.539,1.558,9.227,1.456,18.057-.145,12.365,21.446,11.069,22.876,13.977A32.657,32.657,0,0,1,2793.592,986.795Z" transform="translate(-1399.542 -351.468)" fill="#fcaa23"></path><g id="Group_777" data-name="Group 777" transform="translate(1375.768 671.141)"><path id="Path_7483" data-name="Path 7483" d="M2827.224,1205.428c-1.748,2.953-10.044,16.334-17.014,18.956a30.362,30.362,0,0,1-5.9-12.722c-.069-.314-.547-.025-.63.286-.423,1.584-1.649,3.892-2.416,4.42,0,0-2.362,15.1-2,18.036,0,0,7.444-9.448,10.951-10.02,0,0,5.439,1.718,7.73,14.386,0,0,13.312-20.613,14.243-27.054a17.9,17.9,0,0,1-4.33-6.072C2827.756,1205.408,2827.354,1205.209,2827.224,1205.428Z" transform="translate(-2799.223 -1205.333)" fill="#fff"></path><path id="Path_7484" data-name="Path 7484" d="M2827.224,1205.428c-1.748,2.953-10.044,16.334-17.014,18.956a30.362,30.362,0,0,1-5.9-12.722c-.069-.314-.547-.025-.63.286-.423,1.584-1.649,3.892-2.416,4.42,0,0-2.362,15.1-2,18.036,0,0,7.444-9.448,10.951-10.02,0,0,5.439,1.718,7.73,14.386,0,0,13.312-20.613,14.243-27.054a17.9,17.9,0,0,1-4.33-6.072C2827.756,1205.408,2827.354,1205.209,2827.224,1205.428Z" transform="translate(-2799.223 -1205.333)" fill="none" stroke="#000" stroke-linecap="round" stroke-miterlimit="10" stroke-width="2"></path></g><g id="Group_778" data-name="Group 778" transform="translate(1364.854 675.972)"><path id="Path_7485" data-name="Path 7485" d="M2803.562,1222.939c-1.581-.859-21.236,52.5-30.411,72.571,0,0-1.54-42.657,1.532-68.2,0,0,.079-.867-1.353.636s-3.078,2.755-4.545,7.981-6.752,26.231-8.088,29.476c0,0,6.918,5.01,8.3,7.778,0,0-4.1,2.935-5.821,4.294l9.972,18.036L2794,1278.429l-4.461-5.75,13.145-7.324s4.341-34.395,4.175-37.48C2806.647,1223.866,2803.684,1221.173,2803.562,1222.939Z" transform="translate(-2760.697 -1222.387)" fill="#0b065a"></path><path id="Path_7486" data-name="Path 7486" d="M2803.562,1222.939c-1.581-.859-21.236,52.5-30.411,72.571,0,0-1.54-42.657,1.532-68.2,0,0,.079-.867-1.353.636s-3.078,2.755-4.545,7.981-6.752,26.231-8.088,29.476c0,0,6.918,5.01,8.3,7.778,0,0-4.1,2.935-5.821,4.294l9.972,18.036L2794,1278.429l-4.461-5.75,13.145-7.324s4.341-34.395,4.175-37.48C2806.647,1223.866,2803.684,1221.173,2803.562,1222.939Z" transform="translate(-2760.697 -1222.387)" fill="none" stroke="#fff" stroke-linecap="round" stroke-miterlimit="10" stroke-width="2"></path></g><g id="Group_779" data-name="Group 779" transform="translate(1364.854 749.096)"><path id="Path_7487" data-name="Path 7487" d="M2773.151,1480.515s-2.147,29.2-3.579,38.792-8.875,62.279-8.875,62.279" transform="translate(-2760.697 -1480.515)" fill="#0b065a"></path><path id="Path_7488" data-name="Path 7488" d="M2773.151,1480.515s-2.147,29.2-3.579,38.792-8.875,62.279-8.875,62.279" transform="translate(-2760.697 -1480.515)" fill="none" stroke="#000" stroke-linecap="round" stroke-miterlimit="10" stroke-width="2"></path></g><g id="Group_780" data-name="Group 780" transform="translate(1377.308 690.191)"><path id="Path_7489" data-name="Path 7489" d="M2814.107,1272.581s-6.875,49.162-9.448,57.688" transform="translate(-2804.659 -1272.581)" fill="#fff"></path><path id="Path_7490" data-name="Path 7490" d="M2814.107,1272.581s-6.875,49.162-9.448,57.688" transform="translate(-2804.659 -1272.581)" fill="none" stroke="#000" stroke-linecap="round" stroke-miterlimit="10" stroke-width="2"></path></g><g id="Group_781" data-name="Group 781" transform="translate(1370.289 733.922)"><path id="Path_7491" data-name="Path 7491" d="M2848.967,1426.952s-.8,26.943-3.161,44.693c0,0-39.182,4.048-62.8,5.551,0,0-7.412,5.447.6,19.257" transform="translate(-2779.883 -1426.952)" fill="#0b065a"></path><path id="Path_7492" data-name="Path 7492" d="M2848.967,1426.952s-.8,26.943-3.161,44.693c0,0-39.182,4.048-62.8,5.551,0,0-7.412,5.447.6,19.257" transform="translate(-2779.883 -1426.952)" fill="none" stroke="#000" stroke-linecap="round" stroke-miterlimit="10" stroke-width="2"></path></g><g id="Group_782" data-name="Group 782" transform="translate(1335.735 776.143)"><path id="Path_7493" data-name="Path 7493" d="M2695.583,1584.015s-14.887-7.586-17.177-8.016-21.329,17.464-20.47,19.038,37.647.7,37.647.7Z" transform="translate(-2657.908 -1575.991)" fill="#fff"></path><path id="Path_7494" data-name="Path 7494" d="M2695.583,1584.015s-14.887-7.586-17.177-8.016-21.329,17.464-20.47,19.038,37.647.7,37.647.7Z" transform="translate(-2657.908 -1575.991)" fill="none" stroke="#000" stroke-linecap="round" stroke-miterlimit="10" stroke-width="2"></path></g><path id="Path_7495" data-name="Path 7495" d="M2679.18,1589.408s-.43,8.484,2.862,15.658h-21.257Z" transform="translate(-1324.235 -809.464)" fill="#fcaa23"></path><g id="Group_786" data-name="Group 786" transform="translate(1210.257 733.922)"><g id="Group_783" data-name="Group 783" transform="translate(127.829 61.679)"><path id="Path_7496" data-name="Path 7496" d="M2669.352,1644.682h40.369v8.134h-43.516Z" transform="translate(-2666.205 -1644.682)" fill="#4052f2"></path><path id="Path_7497" data-name="Path 7497" d="M2669.352,1644.682h40.369v8.134h-43.516Z" transform="translate(-2666.205 -1644.682)" fill="none" stroke="#000" stroke-linecap="round" stroke-miterlimit="10" stroke-width="2"></path></g><g id="Group_784" data-name="Group 784"><path id="Path_7498" data-name="Path 7498" d="M2214.967,1426.952H2324.33l24.478,69.855h-107.5Z" transform="translate(-2214.967 -1426.952)" fill="#4052f2"></path><path id="Path_7499" data-name="Path 7499" d="M2214.967,1426.952H2324.33l24.478,69.855h-107.5Z" transform="translate(-2214.967 -1426.952)" fill="none" stroke="#000" stroke-linecap="round" stroke-miterlimit="10" stroke-width="2"></path></g><g id="Group_785" data-name="Group 785" transform="translate(109.363)"><path id="Path_7500" data-name="Path 7500" d="M2601.021,1426.952h3.149l21.472,61.679h-3.008Z" transform="translate(-2601.021 -1426.952)" fill="#4052f2"></path><path id="Path_7501" data-name="Path 7501" d="M2601.021,1426.952h3.149l21.472,61.679h-3.008Z" transform="translate(-2601.021 -1426.952)" fill="none" stroke="#000" stroke-linecap="round" stroke-miterlimit="10" stroke-width="2"></path></g></g><g id="Group_787" data-name="Group 787" transform="translate(1110.741 803.465)"><rect id="Rectangle_193" data-name="Rectangle 193" width="424.712" height="12.167" transform="translate(0)" fill="#feeed3"></rect><rect id="Rectangle_194" data-name="Rectangle 194" width="424.712" height="12.167" transform="translate(0)" fill="none" stroke="#000" stroke-linecap="round" stroke-miterlimit="10" stroke-width="2"></rect></g><g id="Group_788" data-name="Group 788" transform="translate(999.365 608.489)"><path id="Path_7502" data-name="Path 7502" d="M1514.109,984.408c.215,0,8.005,1.09,11.141,15.7,1.742,8.112-.549,16.724,2.672,23.381s-.382,26.245-5.535,29.394-19.158.952-19.158.952v14.076l-28.414-2.195s.644-17.177-3.507-22.546,8.8-56.232,18.251-57.95S1514.109,984.408,1514.109,984.408Z" transform="translate(-1470.511 -984.169)" fill="#fff"></path><path id="Path_7503" data-name="Path 7503" d="M1514.109,984.408c.215,0,8.005,1.09,11.141,15.7,1.742,8.112-.549,16.724,2.672,23.381s-.382,26.245-5.535,29.394-19.158.952-19.158.952v14.076l-28.414-2.195s.644-17.177-3.507-22.546,8.8-56.232,18.251-57.95S1514.109,984.408,1514.109,984.408Z" transform="translate(-1470.511 -984.169)" fill="none" stroke="#000" stroke-linecap="round" stroke-miterlimit="10" stroke-width="2"></path></g><path id="Path_7504" data-name="Path 7504" d="M1513.4,1142.412v-9.448s-9.233-6.8-9.233-14.386.9-14.172,4.959-17.535,2.2-5.368,2.2-5.368-13.1,3.435-17.034,12.024-8.589,24.728-8.589,24.728,1.145,11.488.429,13.635,26.911.286,26.911.286Z" transform="translate(-482.036 -455.598)" fill="#fcaa23"></path><path id="Path_7505" data-name="Path 7505" d="M1464.04,954.1s5.6-8.221-4.61-13.946-31.874-6.966-54.491,10.4-.668,55.063,4.963,61.648,6.847,6.561,12.382,6.847a41.919,41.919,0,0,0,12.143-1.694s-4.1-14.41-.954-22.712,17.273-14.792,22.9-8.016c0,0,2.1,2.672,2.195-.1S1449.295,974.172,1464.04,954.1Z" transform="translate(-416.968 -341.402)" fill="#0b065a"></path><g id="Group_789" data-name="Group 789" transform="translate(1027.093 642.228)"><path id="Path_7506" data-name="Path 7506" d="M1581.933,1107.345s-3.89-5.58-10.228-3.685-3.69,22.221,8.907,15.636" transform="translate(-1568.394 -1103.268)" fill="#fff"></path><path id="Path_7507" data-name="Path 7507" d="M1581.933,1107.345s-3.89-5.58-10.228-3.685-3.69,22.221,8.907,15.636" transform="translate(-1568.394 -1103.268)" fill="none" stroke="#000" stroke-linecap="round" stroke-miterlimit="10" stroke-width="2"></path></g><g id="Group_790" data-name="Group 790" transform="translate(1024.854 675.505)"><path id="Path_7508" data-name="Path 7508" d="M1567.719,1223.386s-5.654-.93-7.229-2.648" transform="translate(-1560.49 -1220.738)" fill="#fff"></path><path id="Path_7509" data-name="Path 7509" d="M1567.719,1223.386s-5.654-.93-7.229-2.648" transform="translate(-1560.49 -1220.738)" fill="none" stroke="#000" stroke-linecap="round" stroke-miterlimit="10" stroke-width="2"></path></g><g id="Group_791" data-name="Group 791" transform="translate(996.511 685.979)"><path id="Path_7510" data-name="Path 7510" d="M1465.735,1257.71s12.239,4.2,31.492,1.05a42.6,42.6,0,0,0,6.776,8.4s-30.776,11.022-43.564.906C1460.439,1268.064,1465.449,1260,1465.735,1257.71Z" transform="translate(-1460.439 -1257.71)" fill="#fff"></path><path id="Path_7511" data-name="Path 7511" d="M1465.735,1257.71s12.239,4.2,31.492,1.05a42.6,42.6,0,0,0,6.776,8.4s-30.776,11.022-43.564.906C1460.439,1268.064,1465.449,1260,1465.735,1257.71Z" transform="translate(-1460.439 -1257.71)" fill="none" stroke="#000" stroke-linecap="round" stroke-miterlimit="10" stroke-width="2"></path></g><g id="Group_792" data-name="Group 792" transform="translate(938.926 693.9)"><path id="Path_7512" data-name="Path 7512" d="M1355.616,1285.816s15.865,11.643,24.836,15.746,19.826,37.074,30.633,70.571c0,0,31.683-48.288,33.783-52.2,0,0,12.6-3.7,18.251,8.827,0,0-31.109,97.005-52.033,89.9-16.429-5.583-24.191-17.321-24.191-17.321l.994,44.375s-40.932,20.613-58.324,37.361-56.471,9.662-56.471,9.662-22.975-31.349-13.742-85.672,30.633-106.691,43.993-114.8,22.808-6.442,22.808-6.442Z" transform="translate(-1257.162 -1285.674)" fill="#0b065a"></path><path id="Path_7513" data-name="Path 7513" d="M1355.616,1285.816s15.865,11.643,24.836,15.746,19.826,37.074,30.633,70.571c0,0,31.683-48.288,33.783-52.2,0,0,12.6-3.7,18.251,8.827,0,0-31.109,97.005-52.033,89.9-16.429-5.583-24.191-17.321-24.191-17.321l.994,44.375s-40.932,20.613-58.324,37.361-56.471,9.662-56.471,9.662-22.975-31.349-13.742-85.672,30.633-106.691,43.993-114.8,22.808-6.442,22.808-6.442Z" transform="translate(-1257.162 -1285.674)" fill="none" stroke="#000" stroke-linecap="round" stroke-miterlimit="10" stroke-width="2"></path></g><g id="Group_815" data-name="Group 815" transform="translate(907.904 737.129)"><g id="Group_795" data-name="Group 795" transform="translate(73.255 84.169)"><g id="Group_793" data-name="Group 793" transform="translate(4.187)"><rect id="Rectangle_195" data-name="Rectangle 195" width="8.374" height="88.893" fill="#0502ab"></rect><rect id="Rectangle_196" data-name="Rectangle 196" width="8.374" height="88.893" fill="none" stroke="#000" stroke-linecap="round" stroke-miterlimit="10" stroke-width="2"></rect></g><g id="Group_794" data-name="Group 794"><rect id="Rectangle_197" data-name="Rectangle 197" width="8.374" height="88.893" fill="#4052f2"></rect><rect id="Rectangle_198" data-name="Rectangle 198" width="8.374" height="88.893" fill="none" stroke="#000" stroke-linecap="round" stroke-miterlimit="10" stroke-width="2"></rect></g></g><g id="Group_798" data-name="Group 798" transform="translate(9.322 84.169)"><g id="Group_796" data-name="Group 796" transform="translate(4.187)"><rect id="Rectangle_199" data-name="Rectangle 199" width="8.374" height="88.893" fill="#0502ab"></rect><rect id="Rectangle_200" data-name="Rectangle 200" width="8.374" height="88.893" fill="none" stroke="#000" stroke-linecap="round" stroke-miterlimit="10" stroke-width="2"></rect></g><g id="Group_797" data-name="Group 797"><rect id="Rectangle_201" data-name="Rectangle 201" width="8.374" height="88.893" fill="#4052f2"></rect><rect id="Rectangle_202" data-name="Rectangle 202" width="8.374" height="88.893" fill="none" stroke="#000" stroke-linecap="round" stroke-miterlimit="10" stroke-width="2"></rect></g></g><g id="Group_801" data-name="Group 801" transform="translate(9.322 183.369)"><g id="Group_799" data-name="Group 799" transform="translate(4.187)"><rect id="Rectangle_203" data-name="Rectangle 203" width="8.374" height="155.86" fill="#0502ab"></rect><rect id="Rectangle_204" data-name="Rectangle 204" width="8.374" height="155.86" fill="none" stroke="#000" stroke-linecap="round" stroke-miterlimit="10" stroke-width="2"></rect></g><g id="Group_800" data-name="Group 800"><rect id="Rectangle_205" data-name="Rectangle 205" width="8.374" height="155.86" fill="#4052f2"></rect><rect id="Rectangle_206" data-name="Rectangle 206" width="8.374" height="155.86" fill="none" stroke="#000" stroke-linecap="round" stroke-miterlimit="10" stroke-width="2"></rect></g></g><g id="Group_804" data-name="Group 804" transform="translate(75.348 183.369)"><g id="Group_802" data-name="Group 802" transform="translate(4.187)"><rect id="Rectangle_207" data-name="Rectangle 207" width="8.374" height="155.86" fill="#0502ab"></rect><rect id="Rectangle_208" data-name="Rectangle 208" width="8.374" height="155.86" fill="none" stroke="#000" stroke-linecap="round" stroke-miterlimit="10" stroke-width="2"></rect></g><g id="Group_803" data-name="Group 803"><rect id="Rectangle_209" data-name="Rectangle 209" width="8.374" height="155.86" fill="#4052f2"></rect><rect id="Rectangle_210" data-name="Rectangle 210" width="8.374" height="155.86" fill="none" stroke="#000" stroke-linecap="round" stroke-miterlimit="10" stroke-width="2"></rect></g></g><g id="Group_807" data-name="Group 807" transform="translate(116.628 183.369)"><g id="Group_805" data-name="Group 805" transform="translate(4.187)"><rect id="Rectangle_211" data-name="Rectangle 211" width="8.374" height="155.86" fill="#0502ab"></rect><rect id="Rectangle_212" data-name="Rectangle 212" width="8.374" height="155.86" fill="none" stroke="#000" stroke-linecap="round" stroke-miterlimit="10" stroke-width="2"></rect></g><g id="Group_806" data-name="Group 806"><rect id="Rectangle_213" data-name="Rectangle 213" width="8.374" height="155.86" fill="#4052f2"></rect><rect id="Rectangle_214" data-name="Rectangle 214" width="8.374" height="155.86" fill="none" stroke="#000" stroke-linecap="round" stroke-miterlimit="10" stroke-width="2"></rect></g></g><g id="Group_810" data-name="Group 810" transform="translate(158.712 183.369)"><g id="Group_808" data-name="Group 808" transform="translate(4.187)"><rect id="Rectangle_215" data-name="Rectangle 215" width="8.374" height="155.86" fill="#0502ab"></rect><rect id="Rectangle_216" data-name="Rectangle 216" width="8.374" height="155.86" fill="none" stroke="#000" stroke-linecap="round" stroke-miterlimit="10" stroke-width="2"></rect></g><g id="Group_809" data-name="Group 809"><rect id="Rectangle_217" data-name="Rectangle 217" width="8.374" height="155.86" fill="#4052f2"></rect><rect id="Rectangle_218" data-name="Rectangle 218" width="8.374" height="155.86" fill="none" stroke="#000" stroke-linecap="round" stroke-miterlimit="10" stroke-width="2"></rect></g></g><g id="Group_811" data-name="Group 811" transform="translate(0 0)"><rect id="Rectangle_219" data-name="Rectangle 219" width="93.331" height="88.464" fill="#4052f2"></rect><rect id="Rectangle_220" data-name="Rectangle 220" width="93.331" height="88.464" fill="none" stroke="#000" stroke-linecap="round" stroke-miterlimit="10" stroke-width="2"></rect></g><g id="Group_812" data-name="Group 812" transform="translate(93.331 0)"><path id="Path_7514" data-name="Path 7514" d="M1477.115,1438.273l7.157,2.29v86.173h-7.157Z" transform="translate(-1477.115 -1438.273)" fill="#0502ab"></path><path id="Path_7515" data-name="Path 7515" d="M1477.115,1438.273l7.157,2.29v86.173h-7.157Z" transform="translate(-1477.115 -1438.273)" fill="none" stroke="#000" stroke-linecap="round" stroke-miterlimit="10" stroke-width="2"></path></g><g id="Group_813" data-name="Group 813" transform="translate(0 173.063)"><rect id="Rectangle_221" data-name="Rectangle 221" width="93.331" height="13.885" fill="#4052f2"></rect><rect id="Rectangle_222" data-name="Rectangle 222" width="93.331" height="13.885" fill="none" stroke="#000" stroke-linecap="round" stroke-miterlimit="10" stroke-width="2"></rect></g><g id="Group_814" data-name="Group 814" transform="translate(93.331 173.063)"><rect id="Rectangle_223" data-name="Rectangle 223" width="87.462" height="13.885" fill="#0502ab"></rect><rect id="Rectangle_224" data-name="Rectangle 224" width="87.462" height="13.885" fill="none" stroke="#000" stroke-linecap="round" stroke-miterlimit="10" stroke-width="2"></rect></g><line id="Line_45" data-name="Line 45" x2="42.85" transform="translate(2.785 4.137)" fill="none" stroke="#fff" stroke-linecap="round" stroke-miterlimit="10" stroke-width="2"></line><line id="Line_46" data-name="Line 46" x2="29.361" transform="translate(49.532 4.137)" fill="none" stroke="#fff" stroke-linecap="round" stroke-miterlimit="10" stroke-width="2"></line></g><path id="Path_7516" data-name="Path 7516" d="M1888.815,2023.082a345.713,345.713,0,0,0,43.265-9.448" transform="translate(-770.951 -1113.514)" fill="none" stroke="#000" stroke-linecap="round" stroke-miterlimit="10" stroke-width="2"></path><path id="Path_7517" data-name="Path 7517" d="M1984.189,2028.709s1.933,74.746,10.307,117.045" transform="translate(-839.307 -1124.318)" fill="none" stroke="#000" stroke-linecap="round" stroke-miterlimit="10" stroke-width="2"></path><g id="Group_816" data-name="Group 816" transform="translate(1041.904 759.674)"><path id="Path_7518" data-name="Path 7518" d="M1620.676,1517.858s12.8,30.419,26.753,49.886" transform="translate(-1620.676 -1517.858)" fill="#0b065a"></path><path id="Path_7519" data-name="Path 7519" d="M1620.676,1517.858s12.8,30.419,26.753,49.886" transform="translate(-1620.676 -1517.858)" fill="none" stroke="#000" stroke-linecap="round" stroke-miterlimit="10" stroke-width="2"></path></g><g id="Group_817" data-name="Group 817" transform="translate(1085.832 780.359)"><path id="Path_7520" data-name="Path 7520" d="M1782.759,1590.875s-7.157,10.593-7.014,20.47" transform="translate(-1775.743 -1590.875)" fill="#0b065a"></path><path id="Path_7521" data-name="Path 7521" d="M1782.759,1590.875s-7.157,10.593-7.014,20.47" transform="translate(-1775.743 -1590.875)" fill="none" stroke="#000" stroke-linecap="round" stroke-miterlimit="10" stroke-width="2"></path></g><g id="Group_818" data-name="Group 818" transform="translate(1162.863 700.476)"><path id="Path_7522" data-name="Path 7522" d="M2065.156,1308.885s-6.759,2.065-17.49,8.293" transform="translate(-2047.665 -1308.885)" fill="#fff"></path><path id="Path_7523" data-name="Path 7523" d="M2065.156,1308.885s-6.759,2.065-17.49,8.293" transform="translate(-2047.665 -1308.885)" fill="none" stroke="#000" stroke-linecap="round" stroke-miterlimit="10" stroke-width="2"></path></g><g id="Group_819" data-name="Group 819" transform="translate(1167.427 711.447)"><path id="Path_7524" data-name="Path 7524" d="M2067.989,1347.615a21.779,21.779,0,0,0-4.214,2.54" transform="translate(-2063.775 -1347.615)" fill="#fff"></path><path id="Path_7525" data-name="Path 7525" d="M2067.989,1347.615a21.779,21.779,0,0,0-4.214,2.54" transform="translate(-2063.775 -1347.615)" fill="none" stroke="#000" stroke-linecap="round" stroke-miterlimit="10" stroke-width="2"></path></g><g id="Group_820" data-name="Group 820" transform="translate(1165.897 702.541)"><path id="Path_7526" data-name="Path 7526" d="M2074.594,1316.175s-4.862,2.679-6.6,3.743-9.617,5.841-9.617,5.841" transform="translate(-2058.373 -1316.175)" fill="#fff"></path><path id="Path_7527" data-name="Path 7527" d="M2074.594,1316.175s-4.862,2.679-6.6,3.743-9.617,5.841-9.617,5.841" transform="translate(-2058.373 -1316.175)" fill="none" stroke="#000" stroke-linecap="round" stroke-miterlimit="10" stroke-width="2"></path></g><g id="Group_821" data-name="Group 821" transform="translate(1145.311 707.962)"><path id="Path_7528" data-name="Path 7528" d="M1989.123,1335.313a25.167,25.167,0,0,0-3.418,2.255" transform="translate(-1985.705 -1335.313)" fill="#fff"></path><path id="Path_7529" data-name="Path 7529" d="M1989.123,1335.313a25.167,25.167,0,0,0-3.418,2.255" transform="translate(-1985.705 -1335.313)" fill="none" stroke="#000" stroke-linecap="round" stroke-miterlimit="10" stroke-width="2"></path></g><path id="Path_7530" data-name="Path 7530" d="M1605.8,971.707s1.717,6.585-10.784,17.75" transform="translate(-560.383 -366.749)" fill="none" stroke="#fff" stroke-linecap="round" stroke-miterlimit="10" stroke-width="2"></path><path id="Path_7531" data-name="Path 7531" d="M1474.848,953.659s-35.214-10.4-53.823,21.711" transform="translate(-435.679 -352.661)" fill="none" stroke="#fff" stroke-linecap="round" stroke-miterlimit="10" stroke-width="2"></path><path id="Path_7532" data-name="Path 7532" d="M1470.154,971.505s-35.748-3.531-41.044,36.407" transform="translate(-441.474 -366.547)" fill="none" stroke="#fff" stroke-linecap="round" stroke-miterlimit="10" stroke-width="2"></path><path id="Path_7533" data-name="Path 7533" d="M1498.158,1026.953s-16.93,15.746-5.96,48.956" transform="translate(-484.039 -406.344)" fill="none" stroke="#fff" stroke-linecap="round" stroke-miterlimit="10" stroke-width="2"></path><path id="Path_7534" data-name="Path 7534" d="M1593.094,1033.017s-2.1,5.344-7.086,6.489" transform="translate(-553.925 -410.69)" fill="none" stroke="#fff" stroke-linecap="round" stroke-miterlimit="10" stroke-width="2"></path><g id="Group_822" data-name="Group 822" transform="translate(1030.131 645.067)"><path id="Path_7535" data-name="Path 7535" d="M1582.849,1113.311s-6.337-.907-2.5,9.591" transform="translate(-1579.117 -1113.292)" fill="#fff"></path><path id="Path_7536" data-name="Path 7536" d="M1582.849,1113.311s-6.337-.907-2.5,9.591" transform="translate(-1579.117 -1113.292)" fill="none" stroke="#000" stroke-linecap="round" stroke-miterlimit="10" stroke-width="2"></path></g><path id="Path_7537" data-name="Path 7537" d="M2745.59,1046.393s-2.75,10.7-4.72,13.891,5.713,3.363,5.713,3.363" transform="translate(-1381.401 -420.277)" fill="none" stroke="#000" stroke-linecap="round" stroke-miterlimit="10" stroke-width="2"></path><path id="Path_7538" data-name="Path 7538" d="M2747.724,1130.761s4.136,2.632,13.782-.855" transform="translate(-1386.545 -480.132)" fill="none" stroke="#000" stroke-linecap="round" stroke-miterlimit="10" stroke-width="2"></path><ellipse id="Ellipse_28" data-name="Ellipse 28" cx="1.802" cy="1.103" rx="1.802" ry="1.103" transform="translate(1353.355 630.567) rotate(-82.583)"></ellipse><ellipse id="Ellipse_29" data-name="Ellipse 29" cx="1.802" cy="1.126" rx="1.802" ry="1.126" transform="translate(1375.748 632.489) rotate(-83.839)"></ellipse><path id="Path_7539" data-name="Path 7539" d="M2715.548,1024.475a4.247,4.247,0,0,1,5.911-.8" transform="translate(-1363.484 -403.39)" fill="none" stroke="#000" stroke-linecap="round" stroke-miterlimit="10" stroke-width="2"></path><ellipse id="Ellipse_30" data-name="Ellipse 30" cx="8.589" cy="5.013" rx="8.589" ry="5.013" transform="translate(1264.972 766.116)" fill="#feeed3"></ellipse><g id="Group_823" data-name="Group 823" transform="translate(903.726 768.353)"><line id="Line_47" data-name="Line 47" y1="49.042" fill="#4052f2"></line><line id="Line_48" data-name="Line 48" y1="49.042" fill="none" stroke="#000" stroke-linecap="round" stroke-miterlimit="10" stroke-width="2"></line></g><line id="Line_49" data-name="Line 49" y1="20.656" transform="translate(903.726 741.266)" fill="#4052f2" stroke="#000" stroke-linecap="round" stroke-miterlimit="10" stroke-width="2"></line><line id="Line_50" data-name="Line 50" y1="111.856" transform="translate(912.584 957.037)" fill="#4052f2" stroke="#000" stroke-linecap="round" stroke-miterlimit="10" stroke-width="2"></line><path id="Path_7540" data-name="Path 7540" d="M3047.446,1290.017c-.181.249-6.3,1.922-10.393,12.731" transform="translate(-1593.911 -594.886)" fill="none" stroke="#fff" stroke-linecap="round" stroke-miterlimit="10" stroke-width="2"></path><path id="Path_7541" data-name="Path 7541" d="M2685.435,1283.6s-6.626,4.937-7.925,16.759" transform="translate(-1336.221 -590.284)" fill="#0b065a" stroke="#000" stroke-linecap="round" stroke-miterlimit="10" stroke-width="2"></path><path id="Path_7542" data-name="Path 7542" d="M3012.593,1583.757s10.443-1.578,14.47,1.691" transform="translate(-1576.381 -805.142)" fill="#0b065a" stroke="#000" stroke-linecap="round" stroke-miterlimit="10" stroke-width="2"></path><path id="Path_7543" data-name="Path 7543" d="M2785.128,921.291s17.149-7.362,32.739,17.235" transform="translate(-1413.353 -329.874)" fill="none" stroke="#fff" stroke-linecap="round" stroke-miterlimit="10" stroke-width="2"></path><path id="Path_7544" data-name="Path 7544" d="M2907.039,998.807s2.728,3.9,4.149,11.237" transform="translate(-1500.729 -386.172)" fill="none" stroke="#fff" stroke-linecap="round" stroke-miterlimit="10" stroke-width="2"></path><path id="Path_7545" data-name="Path 7545" d="M2790.9,933.686a34.039,34.039,0,0,1,20.119,20.656" transform="translate(-1417.492 -339.498)" fill="none" stroke="#fff" stroke-linecap="round" stroke-miterlimit="10" stroke-width="2"></path><path id="Path_7546" data-name="Path 7546" d="M2866.453,1020.916a26.321,26.321,0,0,1,1.645,6.382" transform="translate(-1471.64 -402.017)" fill="none" stroke="#fff" stroke-linecap="round" stroke-miterlimit="10" stroke-width="2"></path><line id="Line_51" data-name="Line 51" x1="13.589" y1="34.882" transform="translate(1210.257 743.069)" fill="#4052f2" stroke="#000" stroke-linecap="round" stroke-miterlimit="10" stroke-width="2"></line><line id="Line_52" data-name="Line 52" x2="75.415" transform="translate(1225.795 730.598)" fill="#4052f2" stroke="#000" stroke-linecap="round" stroke-miterlimit="10" stroke-width="2"></line><line id="Line_53" data-name="Line 53" x1="11.303" transform="translate(1209.036 730.598)" fill="#4052f2" stroke="#000" stroke-linecap="round" stroke-miterlimit="10" stroke-width="2"></line><path id="Path_7547" data-name="Path 7547" d="M1638.341,1352.1s-17.795,1.121-17.667,31.911" transform="translate(-578.77 -639.381)" fill="none" stroke="#fff" stroke-linecap="round" stroke-miterlimit="10" stroke-width="2"></path><path id="Path_7548" data-name="Path 7548" d="M1179.275,626.555s120.447,18.476,139.192-12.791,7.179-54.006-26.722-63.955-127.626-7.106-142.383,31.267,13.959,58.981,35.9,61.112" transform="translate(-238.073 -60.865)" fill="#fcaa23"></path><g id="Group_824" data-name="Group 824" transform="translate(899.229 472.848)"><path id="Path_7549" data-name="Path 7549" d="M1150.991,586.99s120.447,18.476,139.192-12.791,7.179-54.007-26.722-63.955-127.626-7.106-142.383,31.267,13.959,58.981,35.9,61.113" transform="translate(-1117.03 -505.356)" fill="#fff"></path><path id="Path_7550" data-name="Path 7550" d="M1150.991,586.99s120.447,18.476,139.192-12.791,7.179-54.007-26.722-63.955-127.626-7.106-142.383,31.267,13.959,58.981,35.9,61.113" transform="translate(-1117.03 -505.356)" fill="none" stroke="#000" stroke-linecap="round" stroke-linejoin="round" stroke-width="2"></path></g><g id="Group_827" data-name="Group 827" transform="translate(958.766 482.416)"><g id="Group_826" data-name="Group 826" transform="translate(21.541 16.977)"><path id="Path_7551" data-name="Path 7551" d="M1429.587,604.934c-6.686-11.014-26.676-5.382-26.347,7.308.3,11.454,15.629,22.719,18.613,24.805l7.4-3.039c.205-.573.572-1.644.986-3.072,1.3-4.486,3.059-12.49,1.71-19.6A19.143,19.143,0,0,0,1429.587,604.934Z" transform="translate(-1403.236 -599.06)" fill="#fff" stroke="#000" stroke-linecap="round" stroke-miterlimit="10" stroke-width="2"></path><path id="Path_7552" data-name="Path 7552" d="M1476.353,722.432c-.11.305-.173.469-.173.469l-6.726,2.914s-.178-.119-.5-.344Z" transform="translate(-1450.337 -687.482)" fill="none" stroke="#000" stroke-linecap="round" stroke-miterlimit="10" stroke-width="2"></path><path id="Path_7553" data-name="Path 7553" d="M1475.624,722.086l.715,1.74.071.173-8.019,3.294-.071-.173-.715-1.741.382-.157,7.4-3.039Z" transform="translate(-1449.37 -687.235)" fill="#fcaa23"></path><path id="Path_7554" data-name="Path 7554" d="M1481.189,740.363l-2.6,1.07a2.525,2.525,0,0,1-3.294-1.376l-.3-.724,7.274-2.988.3.724A2.524,2.524,0,0,1,1481.189,740.363Z" transform="translate(-1454.666 -697.454)" fill="#fcaa23"></path><path id="Path_7555" data-name="Path 7555" d="M1458.091,678.325s-.365-.964-4.139-12.154a11.143,11.143,0,0,1-.581-5.4c-.109.085-.221.17-.336.257-3.079,2.317-5.416,3.355-7.1,3.681,3.429,4.73,8.186,15.77,8.186,15.77" transform="translate(-1433.836 -643.287)" fill="none" stroke="#000" stroke-linecap="round" stroke-miterlimit="10" stroke-width="2"></path><g id="Group_825" data-name="Group 825" transform="translate(18.287 36.343)"><rect id="Rectangle_225" data-name="Rectangle 225" width="10.041" height="2.758" transform="translate(0 3.815) rotate(-22.331)" fill="#fcaa23"></rect><rect id="Rectangle_226" data-name="Rectangle 226" width="10.041" height="2.758" transform="translate(0 3.815) rotate(-22.331)" fill="none" stroke="#000" stroke-linecap="round" stroke-miterlimit="10" stroke-width="2"></rect></g></g><line id="Line_54" data-name="Line 54" x2="7.19" y2="7.758" transform="translate(13.795 6.165)" fill="none" stroke="#081535" stroke-linecap="round" stroke-miterlimit="10" stroke-width="2"></line><line id="Line_55" data-name="Line 55" x2="14.128" y2="1.921" transform="translate(0 28.173)" fill="none" stroke="#081535" stroke-linecap="round" stroke-miterlimit="10" stroke-width="2"></line><line id="Line_56" data-name="Line 56" y1="1.85" x2="9.666" transform="translate(5.942 41.221)" fill="none" stroke="#081535" stroke-linecap="round" stroke-miterlimit="10" stroke-width="2"></line><line id="Line_57" data-name="Line 57" x1="5.034" y2="12.178" transform="translate(48.09)" fill="none" stroke="#081535" stroke-linecap="round" stroke-miterlimit="10" stroke-width="2"></line><line id="Line_58" data-name="Line 58" x1="13.702" y2="9.83" transform="translate(56.95 14.097)" fill="none" stroke="#081535" stroke-linecap="round" stroke-miterlimit="10" stroke-width="2"></line></g><g id="Group_842" data-name="Group 842" transform="translate(1541.514 828.324)"><g id="Group_828" data-name="Group 828" transform="translate(68.634 22.621)"><path id="Path_7556" data-name="Path 7556" d="M3660.95,1840.492a96.34,96.34,0,0,1,2.69,21.208,146.532,146.532,0,0,1-.719,20.518c-1.034,13.566-6.636,26.208-10.259,39.251q-5.406,19.569-11.37,39.026c-4.175,12.931-8.028,25.927-12.481,38.8l-2.224-.45c.9-13.593,2.407-27.064,3.587-40.6q2.072-20.245,4.7-40.375c1.734-13.425,1.489-27.25,5.81-40.151a146.92,146.92,0,0,1,7.316-19.183,96.32,96.32,0,0,1,10.726-18.493Z" transform="translate(-3626.588 -1840.042)" fill="#feeed3"></path></g><g id="Group_829" data-name="Group 829" transform="translate(4.533 126.648)"><path id="Path_7557" data-name="Path 7557" d="M3401.493,2207.26a26.69,26.69,0,0,1,8.631,2.213,31.343,31.343,0,0,1,6.815,3.883c4.26,2.849,6.056,7.966,8.934,12.087s5.66,8.33,8.342,12.631c2.575,4.4,5.323,8.64,7.75,13.176l-1.184,1.09c-4.318-2.8-8.315-5.887-12.485-8.819q-6.094-4.546-11.893-9.364c-3.867-3.211-8.817-5.426-11.3-9.908a31.357,31.357,0,0,1-3.3-7.114,26.684,26.684,0,0,1-1.487-8.784Z" transform="translate(-3400.309 -2207.26)" fill="#feeed3"></path></g><g id="Group_830" data-name="Group 830" transform="translate(76.099 94.216)"><path id="Path_7558" data-name="Path 7558" d="M3700.09,2093.909a40.79,40.79,0,0,1,.278,13.2,49.833,49.833,0,0,1-2.734,11.465c-2.292,7.373-8.674,12.384-13.261,18.432s-9.331,12-14.243,17.864c-5.088,5.758-9.891,11.681-15.225,17.3l-1.965-1.134c2.2-7.428,4.924-14.549,7.367-21.834q3.929-10.776,8.35-21.267c2.944-7,4.092-15.029,9.331-20.7a49.885,49.885,0,0,1,8.562-8.1,40.808,40.808,0,0,1,11.575-6.361Z" transform="translate(-3652.939 -2092.774)" fill="#feeed3"></path></g><g id="Group_831" data-name="Group 831" transform="translate(82.321 134.481)"><path id="Path_7559" data-name="Path 7559" d="M3729.281,2236.937a28.269,28.269,0,0,1-3.76,8.829,32.343,32.343,0,0,1-5.243,6.528c-3.726,3.993-9.464,4.864-14.319,7.106s-9.788,4.364-14.8,6.357c-5.1,1.859-10.063,3.937-15.286,5.607l-.967-1.5c3.678-4.067,7.619-7.728,11.419-11.606q5.83-5.616,11.9-10.856c4.047-3.5,7.21-8.363,12.386-10.106a32.345,32.345,0,0,1,8.11-2.079,28.265,28.265,0,0,1,9.593.222Z" transform="translate(-3674.903 -2234.911)" fill="#feeed3"></path></g><g id="Group_832" data-name="Group 832" transform="translate(45.898)"><path id="Path_7560" data-name="Path 7560" d="M3556.944,1760.191c6.927,15.553,10.021,31.268,12.221,47.022,2.336,15.748.065,31.692-.246,47.552q-.4,23.789-1.378,47.6c-.852,15.883-1.375,31.753-2.512,47.649l-2.266.1c-2.484-15.742-4.355-31.51-6.555-47.263q-2.995-23.643-5.421-47.311c-1.658-15.776-5.277-31.469-4.288-47.359.851-15.884,2.6-31.805,8.178-47.89Z" transform="translate(-3546.331 -1760.191)" fill="#feeed3"></path></g><g id="Group_833" data-name="Group 833" transform="translate(13.824 60.677)"><path id="Path_7561" data-name="Path 7561" d="M3437.137,1974.382a60.576,60.576,0,0,1,11.163,12.309,84.63,84.63,0,0,1,7.852,13.377c4.7,9.092,4.957,19.615,7.14,29.518q3.3,14.845,6.061,29.866c1.646,10.076,3.606,20.051,4.982,30.214l-2.16.7c-4.824-9.051-9.064-18.29-13.617-27.428q-6.539-13.8-12.538-27.776c-4.016-9.312-9.955-18-11.458-28.125a84.711,84.711,0,0,1-1.448-15.444,60.618,60.618,0,0,1,1.864-16.512Z" transform="translate(-3433.11 -1974.382)" fill="#feeed3"></path></g><g id="Group_834" data-name="Group 834" transform="translate(63.535 24.037)"><path id="Path_7562" data-name="Path 7562" d="M3642.95,1845.492a96.345,96.345,0,0,1,2.69,21.208,146.6,146.6,0,0,1-.719,20.518c-1.034,13.566-6.637,26.208-10.259,39.251q-5.406,19.569-11.37,39.025c-4.175,12.931-8.027,25.927-12.481,38.8l-2.224-.45c.9-13.593,2.407-27.064,3.587-40.6q2.072-20.244,4.7-40.375c1.734-13.425,1.489-27.25,5.81-40.151a146.86,146.86,0,0,1,7.316-19.183,96.318,96.318,0,0,1,10.726-18.493Z" transform="translate(-3608.588 -1845.042)" fill="none" stroke="#000" stroke-linecap="round" stroke-miterlimit="10" stroke-width="2"></path></g><g id="Group_835" data-name="Group 835" transform="translate(0 128.064)"><path id="Path_7563" data-name="Path 7563" d="M3385.493,2212.26a26.7,26.7,0,0,1,8.63,2.213,31.328,31.328,0,0,1,6.815,3.884c4.26,2.849,6.055,7.966,8.934,12.087s5.66,8.33,8.341,12.631c2.576,4.4,5.323,8.64,7.75,13.175l-1.184,1.09c-4.318-2.8-8.316-5.886-12.485-8.819q-6.095-4.546-11.893-9.364c-3.867-3.211-8.817-5.426-11.3-9.908a31.363,31.363,0,0,1-3.3-7.114,26.7,26.7,0,0,1-1.487-8.784Z" transform="translate(-3384.309 -2212.26)" fill="none" stroke="#000" stroke-linecap="round" stroke-miterlimit="10" stroke-width="2"></path></g><g id="Group_836" data-name="Group 836" transform="translate(67.033 96.199)"><path id="Path_7564" data-name="Path 7564" d="M3668.089,2100.909a40.818,40.818,0,0,1,.279,13.2,49.881,49.881,0,0,1-2.734,11.465c-2.292,7.373-8.674,12.384-13.261,18.432s-9.331,12-14.243,17.864c-5.088,5.758-9.891,11.681-15.226,17.3l-1.965-1.135c2.2-7.427,4.925-14.548,7.367-21.834q3.928-10.776,8.349-21.267c2.944-7,4.092-15.029,9.331-20.7a49.9,49.9,0,0,1,8.563-8.1,40.793,40.793,0,0,1,11.575-6.361Z" transform="translate(-3620.939 -2099.774)" fill="none" stroke="#000" stroke-linecap="round" stroke-miterlimit="10" stroke-width="2"></path></g><g id="Group_837" data-name="Group 837" transform="translate(74.672 135.897)"><path id="Path_7565" data-name="Path 7565" d="M3702.281,2241.937a28.277,28.277,0,0,1-3.76,8.829,32.333,32.333,0,0,1-5.243,6.528c-3.726,3.993-9.464,4.864-14.319,7.107s-9.788,4.363-14.8,6.357c-5.1,1.859-10.063,3.937-15.286,5.607l-.967-1.5c3.678-4.067,7.619-7.728,11.419-11.606q5.83-5.616,11.9-10.856c4.047-3.5,7.21-8.363,12.386-10.107a32.354,32.354,0,0,1,8.11-2.079,28.278,28.278,0,0,1,9.593.222Z" transform="translate(-3647.903 -2239.911)" fill="none" stroke="#000" stroke-linecap="round" stroke-miterlimit="10" stroke-width="2"></path></g><g id="Group_838" data-name="Group 838" transform="translate(40.799 1.416)"><path id="Path_7566" data-name="Path 7566" d="M3538.944,1765.191c6.927,15.552,10.021,31.268,12.221,47.022,2.336,15.748.065,31.692-.245,47.552q-.4,23.789-1.379,47.6c-.852,15.883-1.375,31.753-2.512,47.649l-2.266.1c-2.484-15.742-4.355-31.509-6.555-47.263q-2.994-23.643-5.421-47.311c-1.658-15.777-5.277-31.47-4.288-47.359.851-15.884,2.6-31.805,8.179-47.89Z" transform="translate(-3528.331 -1765.191)" fill="none" stroke="#000" stroke-linecap="round" stroke-miterlimit="10" stroke-width="2"></path></g><g id="Group_839" data-name="Group 839" transform="translate(9.292 62.093)"><path id="Path_7567" data-name="Path 7567" d="M3421.137,1979.382a60.6,60.6,0,0,1,11.163,12.309,84.677,84.677,0,0,1,7.852,13.377c4.7,9.092,4.956,19.615,7.14,29.518q3.3,14.846,6.061,29.866c1.646,10.076,3.606,20.051,4.981,30.214l-2.159.7c-4.824-9.05-9.063-18.289-13.617-27.427q-6.54-13.8-12.537-27.776c-4.017-9.312-9.955-18-11.458-28.125a84.667,84.667,0,0,1-1.448-15.443,60.618,60.618,0,0,1,1.864-16.512Z" transform="translate(-3417.11 -1979.382)" fill="none" stroke="#000" stroke-linecap="round" stroke-miterlimit="10" stroke-width="2"></path></g><g id="Group_840" data-name="Group 840" transform="translate(20.827 168.303)"><rect id="Rectangle_227" data-name="Rectangle 227" width="81.034" height="20.166" fill="#fcaa23"></rect><rect id="Rectangle_228" data-name="Rectangle 228" width="81.034" height="20.166" fill="none" stroke="#000" stroke-linecap="round" stroke-miterlimit="10" stroke-width="2"></rect></g><g id="Group_841" data-name="Group 841" transform="translate(27.128 188.469)"><rect id="Rectangle_229" data-name="Rectangle 229" width="68.431" height="61.127" fill="#fcaa23"></rect><rect id="Rectangle_230" data-name="Rectangle 230" width="68.431" height="61.127" fill="none" stroke="#000" stroke-linecap="round" stroke-miterlimit="10" stroke-width="2"></rect></g></g><path id="Path_7568" data-name="Path 7568" d="M3480.073,2428.358l68.431,11.688V2425.49h-68.431Z" transform="translate(-1911.431 -1408.698)" fill="#ea8b00"></path><path id="Path_7569" data-name="Path 7569" d="M2127.84,2525.023s-1.429,5.326-8.444,7.665" transform="translate(-936.212 -1480.035)" fill="none" stroke="#fff" stroke-linecap="round" stroke-miterlimit="10" stroke-width="2"></path><path id="Path_7570" data-name="Path 7570" d="M2147.164,2538.241s-1.429,5.326-8.445,7.665" transform="translate(-950.062 -1489.508)" fill="none" stroke="#fff" stroke-linecap="round" stroke-miterlimit="10" stroke-width="2"></path><path id="Path_7571" data-name="Path 7571" d="M2171.2,2548.171s-1.429,5.326-8.445,7.665" transform="translate(-967.288 -1496.625)" fill="none" stroke="#fff" stroke-linecap="round" stroke-miterlimit="10" stroke-width="2"></path><path id="Path_7572" data-name="Path 7572" d="M2192.263,2556.732s-1.429,5.327-8.444,7.665" transform="translate(-982.386 -1502.761)" fill="none" stroke="#fff" stroke-linecap="round" stroke-miterlimit="10" stroke-width="2"></path></g></svg>